<svg id="svg" version="1.1" xmlns="http://www.w3.org/2000/svg" xmlns:xlink="http://www.w3.org/1999/xlink" width="400" height="225" viewBox="0, 0, 400,225"><g id="svgg"><path id="path0" d="M193.229 24.381 C 135.476 29.466,97.916 86.216,116.264 140.667 C 133.421 191.579,191.928 215.562,239.840 191.321 C 291.254 165.309,304.369 97.889,266.479 54.375 C 248.392 33.603,220.094 22.016,193.229 24.381 M208.021 41.148 C 262.197 47.497,290.090 109.466,258.721 153.787 C 225.604 200.579,153.849 191.774,133.026 138.364 C 113.575 88.473,154.887 34.920,208.021 41.148 M194.707 86.913 C 191.739 93.022,189.284 98.054,189.253 98.094 C 189.200 98.159,177.133 99.879,168.542 101.045 C 166.651 101.302,165.028 101.580,164.936 101.664 C 164.843 101.748,168.695 105.677,173.496 110.396 L 182.224 118.976 181.754 121.832 C 181.495 123.402,180.941 126.844,180.523 129.479 C 180.105 132.115,179.436 136.271,179.037 138.716 C 178.638 141.161,178.339 143.245,178.374 143.348 C 178.409 143.450,183.266 140.851,189.167 137.571 C 195.068 134.292,199.990 131.607,200.104 131.604 C 200.219 131.602,205.180 134.287,211.130 137.570 C 217.079 140.853,221.977 143.509,222.014 143.472 C 222.085 143.401,219.803 130.212,218.332 122.188 L 217.758 119.063 226.535 110.390 C 231.363 105.619,235.266 101.671,235.208 101.616 C 235.151 101.561,232.901 101.220,230.208 100.858 C 224.909 100.146,214.141 98.663,212.299 98.393 C 211.389 98.259,211.105 98.121,210.886 97.706 C 210.736 97.421,208.248 92.376,205.358 86.496 L 200.104 75.805 194.707 86.913 " stroke="none" fill="#fbfbfb" fill-rule="evenodd"></path><path id="path1" d="M198.281 1.613 C 199.227 1.652,200.773 1.652,201.719 1.613 C 202.664 1.575,201.891 1.543,200.000 1.543 C 198.109 1.543,197.336 1.575,198.281 1.613 M192.517 1.744 C 192.565 1.787,193.917 1.872,195.521 1.932 C 197.380 2.002,197.984 1.982,197.188 1.877 C 195.897 1.707,192.363 1.607,192.517 1.744 M202.708 1.884 C 202.078 1.966,202.922 1.985,204.583 1.927 C 206.245 1.869,207.643 1.786,207.691 1.744 C 207.836 1.615,203.932 1.724,202.708 1.884 M189.809 1.951 C 189.857 1.993,190.646 2.079,191.563 2.141 C 192.549 2.209,192.974 2.188,192.604 2.090 C 191.978 1.924,189.646 1.808,189.809 1.951 M207.500 2.092 C 207.179 2.200,207.580 2.222,208.542 2.149 C 209.401 2.083,210.143 1.994,210.191 1.952 C 210.364 1.798,208.007 1.921,207.500 2.092 M188.646 2.292 C 189.563 2.525,190.729 2.525,190.000 2.292 C 189.714 2.200,189.151 2.127,188.750 2.129 L 188.021 2.133 188.646 2.292 M210.104 2.292 C 209.203 2.521,210.186 2.529,211.458 2.302 L 212.396 2.135 211.563 2.134 C 211.104 2.133,210.448 2.204,210.104 2.292 M186.667 2.500 C 187.431 2.745,188.382 2.745,187.813 2.500 C 187.583 2.402,187.115 2.324,186.771 2.327 C 186.161 2.333,186.159 2.337,186.667 2.500 M212.292 2.500 L 211.771 2.667 212.292 2.667 C 212.578 2.667,213.047 2.592,213.333 2.500 L 213.854 2.333 213.333 2.333 C 213.047 2.333,212.578 2.408,212.292 2.500 M185.104 2.708 C 185.333 2.807,185.708 2.887,185.938 2.887 L 186.354 2.887 185.938 2.708 C 185.708 2.610,185.333 2.529,185.104 2.529 L 184.688 2.529 185.104 2.708 M214.063 2.708 L 213.646 2.887 214.063 2.887 C 214.292 2.887,214.667 2.807,214.896 2.708 L 215.313 2.529 214.896 2.529 C 214.667 2.529,214.292 2.610,214.063 2.708 M183.542 2.917 C 183.714 3.028,184.089 3.119,184.375 3.119 C 184.787 3.119,184.831 3.077,184.583 2.917 C 184.411 2.806,184.036 2.715,183.750 2.715 C 183.338 2.715,183.294 2.757,183.542 2.917 M215.417 2.917 C 215.169 3.077,215.213 3.119,215.625 3.119 C 215.911 3.119,216.286 3.028,216.458 2.917 C 216.706 2.757,216.662 2.715,216.250 2.715 C 215.964 2.715,215.589 2.806,215.417 2.917 M182.083 3.125 C 182.255 3.236,182.630 3.327,182.917 3.327 C 183.329 3.327,183.372 3.285,183.125 3.125 C 182.953 3.014,182.578 2.923,182.292 2.923 C 181.879 2.923,181.836 2.965,182.083 3.125 M217.292 3.125 C 217.292 3.386,217.513 3.386,217.917 3.125 C 218.169 2.962,218.139 2.922,217.760 2.920 C 217.503 2.918,217.292 3.010,217.292 3.125 M181.042 3.333 C 181.845 3.590,182.273 3.590,181.875 3.333 C 181.703 3.222,181.328 3.139,181.042 3.149 L 180.521 3.167 181.042 3.333 M218.125 3.333 C 217.727 3.590,218.155 3.590,218.958 3.333 L 219.479 3.167 218.958 3.149 C 218.672 3.139,218.297 3.222,218.125 3.333 M179.896 3.542 C 180.519 3.809,181.039 3.809,180.625 3.542 C 180.453 3.431,180.125 3.345,179.896 3.351 L 179.479 3.363 179.896 3.542 M219.375 3.542 C 218.961 3.809,219.481 3.809,220.104 3.542 L 220.521 3.363 220.104 3.351 C 219.875 3.345,219.547 3.431,219.375 3.542 M178.854 3.750 C 179.428 3.996,179.631 3.996,179.479 3.750 C 179.408 3.635,179.145 3.548,178.894 3.556 C 178.454 3.570,178.452 3.577,178.854 3.750 M177.708 3.958 C 177.880 4.069,178.161 4.160,178.333 4.160 C 178.611 4.160,178.611 4.138,178.333 3.958 C 178.161 3.847,177.880 3.756,177.708 3.756 C 177.431 3.756,177.431 3.779,177.708 3.958 M221.667 3.958 C 221.389 4.138,221.389 4.160,221.667 4.160 C 221.839 4.160,222.120 4.069,222.292 3.958 C 222.569 3.779,222.569 3.756,222.292 3.756 C 222.120 3.756,221.839 3.847,221.667 3.958 M175.729 4.375 C 175.800 4.490,176.063 4.582,176.314 4.580 C 176.685 4.578,176.712 4.539,176.458 4.375 C 176.048 4.110,175.565 4.110,175.729 4.375 M223.646 4.375 C 223.575 4.490,223.658 4.583,223.830 4.583 C 224.001 4.583,224.200 4.490,224.271 4.375 C 224.342 4.260,224.259 4.167,224.087 4.167 C 223.915 4.167,223.717 4.260,223.646 4.375 M224.479 4.583 C 224.327 4.830,224.531 4.830,225.104 4.583 C 225.506 4.411,225.504 4.404,225.064 4.390 C 224.813 4.382,224.550 4.469,224.479 4.583 M154.167 11.667 C 154.167 11.795,154.073 11.842,153.958 11.771 C 153.844 11.700,153.750 11.741,153.750 11.863 C 153.750 12.128,153.962 12.140,154.345 11.898 C 154.542 11.773,154.558 11.676,154.397 11.576 C 154.270 11.498,154.167 11.539,154.167 11.667 M129.185 27.580 L 128.682 28.229 129.278 27.663 C 129.606 27.351,129.832 27.059,129.781 27.013 C 129.729 26.967,129.461 27.222,129.185 27.580 M270.208 27.012 C 270.208 27.126,270.466 27.446,270.781 27.724 L 271.354 28.229 270.833 27.604 C 270.547 27.260,270.289 26.940,270.260 26.892 C 270.232 26.845,270.208 26.899,270.208 27.012 M128.125 28.164 C 128.125 28.300,127.914 28.651,127.657 28.945 C 127.281 29.374,127.322 29.359,127.865 28.867 C 128.550 28.248,128.713 27.917,128.333 27.917 C 128.219 27.917,128.125 28.028,128.125 28.164 M271.458 28.086 C 271.458 28.179,271.763 28.531,272.135 28.867 C 272.678 29.359,272.719 29.374,272.343 28.945 C 272.086 28.651,271.875 28.300,271.875 28.164 C 271.875 28.028,271.781 27.917,271.667 27.917 C 271.552 27.917,271.458 27.993,271.458 28.086 M125.963 30.332 C 124.915 31.521,125.074 31.511,126.250 30.313 C 126.756 29.797,127.080 29.384,126.970 29.395 C 126.861 29.405,126.407 29.827,125.963 30.332 M273.750 30.313 C 274.256 30.828,274.710 31.250,274.758 31.250 C 274.934 31.250,273.223 29.414,273.030 29.395 C 272.920 29.384,273.244 29.797,273.750 30.313 M124.179 31.719 C 123.957 32.277,119.639 36.555,119.115 36.736 C 118.830 36.834,118.560 37.500,118.805 37.500 C 118.835 37.500,120.263 36.094,121.979 34.375 C 123.919 32.432,124.960 31.250,124.732 31.250 C 124.530 31.250,124.281 31.461,124.179 31.719 M278.021 34.375 C 281.426 37.786,281.250 37.633,281.250 37.188 C 281.250 37.016,281.131 36.875,280.986 36.875 C 280.647 36.875,275.625 31.848,275.625 31.507 C 275.625 31.366,275.462 31.250,275.263 31.250 C 275.042 31.250,276.115 32.466,278.021 34.375 M117.746 38.568 C 117.252 39.034,116.882 39.452,116.926 39.495 C 116.970 39.539,117.417 39.155,117.921 38.641 C 119.063 37.478,118.952 37.430,117.746 38.568 M282.070 38.590 C 282.579 39.131,283.040 39.530,283.095 39.475 C 283.150 39.420,283.154 39.352,283.104 39.323 C 283.055 39.294,282.594 38.896,282.080 38.438 L 281.146 37.605 282.070 38.590 M116.354 40.208 C 116.147 40.438,115.851 40.625,115.697 40.625 C 115.543 40.625,115.417 40.719,115.417 40.833 C 115.417 41.201,115.740 41.058,116.354 40.417 C 116.684 40.073,116.903 39.792,116.842 39.792 C 116.781 39.792,116.562 39.979,116.354 40.208 M283.633 40.365 C 284.252 41.050,284.583 41.213,284.583 40.833 C 284.583 40.719,284.472 40.625,284.336 40.625 C 284.200 40.625,283.849 40.414,283.555 40.157 C 283.126 39.781,283.141 39.822,283.633 40.365 M114.936 41.777 C 114.615 42.060,114.434 42.292,114.535 42.292 C 114.636 42.292,114.939 42.057,115.208 41.771 C 115.831 41.108,115.693 41.111,114.936 41.777 M284.837 41.778 C 285.149 42.106,285.441 42.332,285.487 42.281 C 285.533 42.229,285.278 41.961,284.920 41.685 L 284.271 41.182 284.837 41.778 M193.486 62.423 C 157.450 66.760,137.765 108.428,157.182 139.271 C 178.297 172.811,228.080 170.108,245.418 134.479 C 262.902 98.550,233.403 57.620,193.486 62.423 M99.271 66.458 C 99.342 66.573,99.295 66.667,99.167 66.667 C 99.039 66.667,98.998 66.770,99.076 66.897 C 99.176 67.058,99.273 67.042,99.398 66.845 C 99.640 66.462,99.628 66.250,99.363 66.250 C 99.241 66.250,99.200 66.344,99.271 66.458 M300.420 66.406 C 300.427 66.777,300.784 67.124,300.924 66.897 C 301.002 66.770,300.961 66.667,300.833 66.667 C 300.705 66.667,300.658 66.573,300.729 66.458 C 300.800 66.344,300.759 66.250,300.637 66.250 C 300.516 66.250,300.418 66.320,300.420 66.406 M210.886 97.706 C 211.105 98.121,211.389 98.259,212.299 98.393 C 214.141 98.663,224.909 100.146,230.208 100.858 C 232.901 101.220,235.151 101.561,235.208 101.616 C 235.266 101.671,231.363 105.619,226.535 110.390 L 217.758 119.063 218.332 122.188 C 219.803 130.212,222.085 143.401,222.014 143.472 C 221.977 143.509,217.079 140.853,211.130 137.570 C 205.180 134.287,200.219 131.602,200.104 131.604 C 199.990 131.607,195.068 134.292,189.167 137.571 C 183.266 140.851,178.409 143.450,178.374 143.348 C 178.339 143.245,178.638 141.161,179.037 138.716 C 179.436 136.271,180.105 132.115,180.523 129.479 C 180.941 126.844,181.495 123.402,181.754 121.832 L 182.224 118.976 173.496 110.396 C 168.695 105.677,164.843 101.748,164.936 101.664 C 165.028 101.580,166.651 101.302,168.542 101.045 C 177.133 99.879,189.200 98.159,189.253 98.094 C 189.284 98.054,191.739 93.022,194.707 86.913 L 200.104 75.805 205.358 86.496 C 208.248 92.376,210.736 97.421,210.886 97.706 M91.890 87.436 C 91.882 87.687,91.969 87.950,92.083 88.021 C 92.330 88.173,92.330 87.969,92.083 87.396 C 91.911 86.994,91.904 86.996,91.890 87.436 M91.667 88.413 C 91.667 88.585,91.760 88.783,91.875 88.854 C 91.990 88.925,92.083 88.842,92.083 88.670 C 92.083 88.499,91.990 88.300,91.875 88.229 C 91.760 88.158,91.667 88.241,91.667 88.413 M308.069 88.251 C 307.985 88.334,307.917 88.547,307.917 88.722 C 307.917 88.957,307.978 88.980,308.148 88.810 C 308.276 88.682,308.344 88.470,308.300 88.339 C 308.256 88.207,308.152 88.167,308.069 88.251 M91.256 90.208 C 91.256 90.380,91.347 90.661,91.458 90.833 C 91.638 91.111,91.660 91.111,91.660 90.833 C 91.660 90.661,91.569 90.380,91.458 90.208 C 91.279 89.931,91.256 89.931,91.256 90.208 M90.851 92.396 C 90.845 92.625,90.931 92.953,91.042 93.125 C 91.309 93.539,91.309 93.019,91.042 92.396 L 90.863 91.979 90.851 92.396 M308.869 92.619 C 308.792 92.924,308.777 93.221,308.834 93.278 C 308.891 93.336,309.001 93.133,309.077 92.827 C 309.154 92.522,309.170 92.225,309.113 92.168 C 309.055 92.111,308.946 92.314,308.869 92.619 M90.649 93.542 C 90.639 93.828,90.722 94.203,90.833 94.375 C 91.090 94.773,91.090 94.345,90.833 93.542 L 90.667 93.021 90.649 93.542 M309.192 93.333 C 309.175 93.505,309.109 93.880,309.045 94.167 C 308.945 94.617,308.962 94.637,309.166 94.317 C 309.296 94.113,309.362 93.738,309.313 93.484 C 309.264 93.229,309.209 93.161,309.192 93.333 M90.423 94.792 C 90.423 95.078,90.514 95.453,90.625 95.625 C 90.785 95.872,90.827 95.829,90.827 95.417 C 90.827 95.130,90.736 94.755,90.625 94.583 C 90.465 94.336,90.423 94.379,90.423 94.792 M309.312 94.665 C 309.227 94.882,309.206 95.109,309.266 95.169 C 309.456 95.359,309.623 95.047,309.544 94.652 C 309.471 94.289,309.459 94.290,309.312 94.665 M90.215 96.250 C 90.215 96.536,90.306 96.911,90.417 97.083 C 90.577 97.331,90.619 97.287,90.619 96.875 C 90.619 96.589,90.528 96.214,90.417 96.042 C 90.257 95.794,90.215 95.838,90.215 96.250 M309.529 96.111 C 309.273 96.745,309.333 97.490,309.603 97.025 C 309.722 96.821,309.789 96.446,309.751 96.192 C 309.690 95.775,309.668 95.767,309.529 96.111 M90.029 97.604 C 90.029 97.833,90.110 98.208,90.208 98.438 L 90.387 98.854 90.387 98.438 C 90.387 98.208,90.307 97.833,90.208 97.604 L 90.029 97.188 90.029 97.604 M309.688 97.917 C 309.608 98.277,309.591 98.618,309.648 98.676 C 309.705 98.733,309.817 98.485,309.896 98.125 C 309.975 97.765,309.993 97.423,309.935 97.366 C 309.878 97.309,309.767 97.557,309.688 97.917 M89.827 99.271 C 89.824 99.615,89.902 100.083,90.000 100.313 C 90.245 100.882,90.245 99.931,90.000 99.167 C 89.837 98.659,89.833 98.661,89.827 99.271 M309.906 99.545 C 309.820 100.040,309.800 100.495,309.862 100.556 C 310.013 100.708,310.274 99.257,310.156 98.917 C 310.104 98.768,309.992 99.051,309.906 99.545 M89.634 100.938 C 89.633 101.396,89.704 102.052,89.792 102.396 C 90.021 103.297,90.029 102.314,89.802 101.042 L 89.635 100.104 89.634 100.938 M310.112 101.571 C 310.032 102.216,310.013 102.790,310.070 102.848 C 310.127 102.905,310.240 102.424,310.321 101.779 C 310.401 101.134,310.420 100.559,310.363 100.502 C 310.306 100.444,310.193 100.925,310.112 101.571 M89.400 103.351 C 89.413 103.971,89.501 104.760,89.595 105.104 C 89.699 105.487,89.720 105.084,89.649 104.063 C 89.514 102.132,89.364 101.702,89.400 103.351 M310.350 103.826 C 310.260 104.727,310.231 105.508,310.284 105.562 C 310.432 105.709,310.672 103.516,310.587 102.806 C 310.546 102.466,310.439 102.925,310.350 103.826 M89.189 106.580 C 89.202 107.602,89.286 109.000,89.376 109.688 C 89.478 110.469,89.498 109.806,89.430 107.917 C 89.309 104.554,89.154 103.697,89.189 106.580 M310.559 107.782 C 310.466 109.483,310.433 110.919,310.486 110.972 C 310.622 111.108,310.885 106.526,310.799 105.521 C 310.760 105.063,310.652 106.080,310.559 107.782 M89.043 112.500 C 89.043 114.391,89.075 115.164,89.113 114.219 C 89.152 113.273,89.152 111.727,89.113 110.781 C 89.075 109.836,89.043 110.609,89.043 112.500 M310.918 112.500 C 310.918 114.391,310.950 115.164,310.988 114.219 C 311.027 113.273,311.027 111.727,310.988 110.781 C 310.950 109.836,310.918 110.609,310.918 112.500 M89.323 115.625 C 89.238 116.599,89.182 118.052,89.198 118.854 C 89.220 119.990,89.267 119.736,89.408 117.708 C 89.508 116.276,89.564 114.823,89.533 114.479 C 89.502 114.135,89.408 114.651,89.323 115.625 M310.569 116.979 C 310.629 118.698,310.712 120.143,310.755 120.191 C 310.891 120.342,310.792 116.621,310.622 115.208 C 310.520 114.356,310.500 115.013,310.569 116.979 M89.524 120.104 C 89.445 120.563,89.390 121.359,89.404 121.875 C 89.424 122.672,89.456 122.594,89.615 121.354 C 89.821 119.742,89.752 118.787,89.524 120.104 M310.351 120.938 C 310.415 121.854,310.503 122.643,310.546 122.691 C 310.694 122.854,310.576 120.523,310.405 119.896 C 310.301 119.513,310.280 119.916,310.351 120.938 M89.682 123.197 C 89.604 123.829,89.581 124.470,89.632 124.621 C 89.683 124.772,89.792 124.300,89.875 123.572 C 89.958 122.844,89.981 122.203,89.926 122.148 C 89.871 122.093,89.761 122.565,89.682 123.197 M310.033 122.500 C 310.028 122.786,310.102 123.396,310.196 123.854 L 310.369 124.688 310.372 123.854 C 310.374 123.396,310.300 122.786,310.208 122.500 L 310.042 121.979 310.033 122.500 M89.942 124.792 C 89.863 125.078,89.805 125.547,89.813 125.833 C 89.827 126.282,89.857 126.257,90.030 125.656 C 90.141 125.273,90.199 124.804,90.159 124.615 C 90.108 124.372,90.045 124.424,89.942 124.792 M309.827 124.792 C 309.837 125.651,310.165 126.540,310.173 125.729 C 310.176 125.385,310.098 124.917,310.000 124.688 C 309.837 124.309,309.822 124.318,309.827 124.792 M90.104 126.875 C 90.025 127.235,90.007 127.577,90.065 127.634 C 90.122 127.691,90.233 127.443,90.313 127.083 C 90.392 126.723,90.409 126.382,90.352 126.324 C 90.295 126.267,90.183 126.515,90.104 126.875 M309.613 126.563 C 309.613 126.792,309.693 127.167,309.792 127.396 L 309.971 127.813 309.971 127.396 C 309.971 127.167,309.890 126.792,309.792 126.563 L 309.613 126.146 309.613 126.563 M90.363 127.986 C 90.106 128.620,90.166 129.365,90.437 128.900 C 90.555 128.696,90.622 128.321,90.585 128.067 C 90.524 127.650,90.502 127.642,90.363 127.986 M309.381 128.125 C 309.381 128.411,309.472 128.786,309.583 128.958 C 309.743 129.206,309.785 129.162,309.785 128.750 C 309.785 128.464,309.694 128.089,309.583 127.917 C 309.423 127.669,309.381 127.713,309.381 128.125 M90.420 130.260 C 90.422 130.639,90.462 130.669,90.625 130.417 C 90.886 130.013,90.886 129.792,90.625 129.792 C 90.510 129.792,90.418 130.003,90.420 130.260 M309.170 129.948 C 309.179 130.405,309.577 130.708,309.580 130.260 C 309.582 130.003,309.490 129.792,309.375 129.792 C 309.260 129.792,309.168 129.862,309.170 129.948 M90.755 130.737 C 90.683 130.923,90.633 131.279,90.644 131.527 C 90.657 131.848,90.721 131.775,90.864 131.279 C 91.072 130.558,90.986 130.134,90.755 130.737 M308.982 130.625 C 308.992 130.797,309.075 131.172,309.167 131.458 L 309.333 131.979 309.351 131.458 C 309.361 131.172,309.278 130.797,309.167 130.625 C 308.987 130.347,308.967 130.347,308.982 130.625 M90.976 131.955 C 90.897 132.159,90.839 132.482,90.847 132.673 C 90.855 132.903,90.928 132.851,91.061 132.518 C 91.171 132.241,91.230 131.918,91.190 131.799 C 91.150 131.681,91.054 131.751,90.976 131.955 M308.768 131.875 C 308.774 132.047,308.860 132.375,308.958 132.604 L 309.137 133.021 309.149 132.604 C 309.155 132.375,309.069 132.047,308.958 131.875 C 308.779 131.597,308.758 131.597,308.768 131.875 M91.354 134.375 C 91.276 134.621,91.259 134.870,91.316 134.927 C 91.373 134.985,91.484 134.830,91.563 134.583 C 91.641 134.337,91.658 134.088,91.601 134.031 C 91.543 133.974,91.432 134.129,91.354 134.375 M91.819 136.168 C 91.735 136.251,91.667 136.463,91.667 136.639 C 91.667 136.873,91.728 136.897,91.898 136.727 C 92.026 136.599,92.094 136.387,92.050 136.255 C 92.006 136.123,91.902 136.084,91.819 136.168 M307.917 136.330 C 307.917 136.501,308.010 136.700,308.125 136.771 C 308.240 136.842,308.333 136.759,308.333 136.587 C 308.333 136.415,308.240 136.217,308.125 136.146 C 308.010 136.075,307.917 136.158,307.917 136.330 M92.014 137.014 C 91.938 137.090,91.881 137.348,91.888 137.587 C 91.900 137.986,91.917 137.981,92.101 137.522 C 92.305 137.012,92.263 136.765,92.014 137.014 M99.076 158.103 C 98.998 158.230,99.039 158.333,99.167 158.333 C 99.295 158.333,99.342 158.427,99.271 158.542 C 99.200 158.656,99.241 158.750,99.363 158.750 C 99.628 158.750,99.640 158.538,99.398 158.155 C 99.273 157.958,99.176 157.942,99.076 158.103 M300.543 158.247 C 300.371 158.694,300.382 158.750,300.637 158.750 C 300.759 158.750,300.805 158.664,300.740 158.559 C 300.675 158.455,300.736 158.331,300.874 158.285 C 301.051 158.226,301.057 158.159,300.897 158.060 C 300.771 157.983,300.612 158.067,300.543 158.247 M114.392 182.760 C 114.440 182.789,114.760 183.047,115.104 183.333 L 115.729 183.854 115.224 183.281 C 114.946 182.966,114.626 182.708,114.512 182.708 C 114.399 182.708,114.345 182.732,114.392 182.760 M284.776 183.281 L 284.271 183.854 284.896 183.333 C 285.240 183.047,285.560 182.789,285.608 182.760 C 285.655 182.732,285.601 182.708,285.488 182.708 C 285.374 182.708,285.054 182.966,284.776 183.281 M115.417 184.167 C 115.417 184.281,115.529 184.375,115.666 184.375 C 115.803 184.375,116.201 184.633,116.551 184.947 C 117.101 185.442,117.090 185.414,116.470 184.739 C 115.751 183.958,115.417 183.776,115.417 184.167 M283.530 184.739 C 282.910 185.414,282.899 185.442,283.449 184.947 C 283.799 184.633,284.197 184.375,284.334 184.375 C 284.471 184.375,284.583 184.281,284.583 184.167 C 284.583 183.776,284.249 183.958,283.530 184.739 M116.896 185.677 C 116.946 185.706,117.454 186.151,118.025 186.667 L 119.063 187.604 118.134 186.615 C 117.623 186.070,117.115 185.625,117.005 185.625 C 116.895 185.625,116.846 185.648,116.896 185.677 M281.969 186.510 L 281.146 187.396 282.080 186.563 C 282.594 186.104,283.055 185.706,283.104 185.677 C 283.154 185.648,283.104 185.625,282.994 185.625 C 282.883 185.625,282.422 186.023,281.969 186.510 M278.174 190.471 C 275.313 193.338,274.966 193.750,275.417 193.750 C 275.531 193.750,275.625 193.631,275.625 193.486 C 275.625 193.160,280.382 188.437,280.885 188.264 C 281.170 188.166,281.440 187.500,281.195 187.500 C 281.165 187.500,279.806 188.837,278.174 190.471 M118.750 187.922 C 118.750 188.039,118.961 188.219,119.219 188.321 C 119.777 188.543,124.055 192.861,124.236 193.385 C 124.305 193.586,124.528 193.750,124.730 193.750 C 124.961 193.750,123.971 192.620,122.083 190.729 C 119.178 187.819,118.750 187.458,118.750 187.922 M273.963 194.475 C 273.459 194.988,273.088 195.438,273.138 195.475 C 273.188 195.512,273.641 195.093,274.144 194.542 C 275.297 193.281,275.178 193.237,273.963 194.475 M125.949 194.597 C 126.401 195.119,126.813 195.515,126.865 195.475 C 126.916 195.435,126.547 195.007,126.043 194.524 L 125.127 193.646 125.949 194.597 M127.553 195.949 C 127.867 196.299,128.125 196.697,128.125 196.834 C 128.125 196.971,128.219 197.083,128.333 197.083 C 128.724 197.083,128.542 196.749,127.761 196.030 C 127.086 195.410,127.058 195.399,127.553 195.949 M272.124 196.104 C 271.434 196.815,271.309 197.083,271.667 197.083 C 271.781 197.083,271.875 196.971,271.875 196.834 C 271.875 196.697,272.127 196.322,272.435 196.001 C 272.743 195.680,272.949 195.417,272.892 195.417 C 272.836 195.417,272.490 195.726,272.124 196.104 M129.185 197.420 C 129.461 197.778,129.729 198.033,129.781 197.987 C 129.832 197.941,129.606 197.649,129.278 197.337 L 128.682 196.771 129.185 197.420 M270.626 197.395 C 270.357 197.681,270.177 197.950,270.225 197.993 C 270.273 198.035,270.531 197.801,270.797 197.473 C 271.394 196.737,271.289 196.690,270.626 197.395 M153.750 213.137 C 153.750 213.259,153.844 213.300,153.958 213.229 C 154.073 213.158,154.167 213.205,154.167 213.333 C 154.167 213.461,154.270 213.502,154.397 213.424 C 154.558 213.324,154.542 213.227,154.345 213.102 C 153.962 212.860,153.750 212.872,153.750 213.137 M175.729 220.625 C 175.658 220.740,175.741 220.833,175.913 220.833 C 176.085 220.833,176.283 220.740,176.354 220.625 C 176.425 220.510,176.342 220.417,176.170 220.417 C 175.999 220.417,175.800 220.510,175.729 220.625 M223.646 220.625 C 223.717 220.740,223.915 220.833,224.087 220.833 C 224.259 220.833,224.342 220.740,224.271 220.625 C 224.200 220.510,224.001 220.417,223.830 220.417 C 223.658 220.417,223.575 220.510,223.646 220.625 M176.771 220.833 C 176.700 220.948,176.783 221.042,176.955 221.042 C 177.126 221.042,177.325 220.948,177.396 220.833 C 177.467 220.719,177.384 220.625,177.212 220.625 C 177.040 220.625,176.842 220.719,176.771 220.833 M178.854 221.250 C 178.452 221.423,178.454 221.430,178.894 221.444 C 179.145 221.452,179.408 221.365,179.479 221.250 C 179.631 221.004,179.428 221.004,178.854 221.250 M179.896 221.458 L 179.479 221.637 179.896 221.649 C 180.125 221.655,180.453 221.569,180.625 221.458 C 181.039 221.191,180.519 221.191,179.896 221.458 M219.375 221.458 C 219.547 221.569,219.875 221.655,220.104 221.649 L 220.521 221.637 220.104 221.458 C 219.481 221.191,218.961 221.191,219.375 221.458 M218.125 221.667 C 218.297 221.778,218.672 221.861,218.958 221.851 L 219.479 221.833 218.958 221.667 C 218.155 221.410,217.727 221.410,218.125 221.667 M182.083 221.875 C 181.836 222.035,181.879 222.077,182.292 222.077 C 182.578 222.077,182.953 221.986,183.125 221.875 C 183.372 221.715,183.329 221.673,182.917 221.673 C 182.630 221.673,182.255 221.764,182.083 221.875 M217.292 221.875 C 217.292 221.990,217.503 222.082,217.760 222.080 C 218.139 222.078,218.169 222.038,217.917 221.875 C 217.513 221.614,217.292 221.614,217.292 221.875 M183.542 222.083 C 183.294 222.243,183.338 222.285,183.750 222.285 C 184.036 222.285,184.411 222.194,184.583 222.083 C 184.831 221.923,184.787 221.881,184.375 221.881 C 184.089 221.881,183.714 221.972,183.542 222.083 M215.417 222.083 C 215.589 222.194,215.964 222.285,216.250 222.285 C 216.662 222.285,216.706 222.243,216.458 222.083 C 216.286 221.972,215.911 221.881,215.625 221.881 C 215.213 221.881,215.169 221.923,215.417 222.083 M185.104 222.292 L 184.688 222.471 185.104 222.465 C 185.333 222.461,185.755 222.383,186.042 222.292 L 186.563 222.125 186.042 222.119 C 185.755 222.115,185.333 222.193,185.104 222.292 M214.063 222.292 C 214.292 222.390,214.667 222.471,214.896 222.471 L 215.313 222.471 214.896 222.292 C 214.667 222.193,214.292 222.113,214.063 222.113 L 213.646 222.113 214.063 222.292 M186.771 222.500 C 186.391 222.663,186.400 222.679,186.875 222.679 C 187.161 222.679,187.583 222.598,187.813 222.500 C 188.192 222.337,188.183 222.321,187.708 222.321 C 187.422 222.321,187.000 222.402,186.771 222.500 M212.292 222.500 C 212.578 222.592,213.047 222.667,213.333 222.667 L 213.854 222.667 213.333 222.500 C 213.047 222.408,212.578 222.333,212.292 222.333 L 211.771 222.333 212.292 222.500 M188.542 222.708 L 187.813 222.862 188.646 222.868 C 189.104 222.872,189.714 222.800,190.000 222.708 C 190.713 222.480,189.627 222.480,188.542 222.708 M210.104 222.708 C 210.448 222.796,211.104 222.867,211.563 222.866 L 212.396 222.865 211.458 222.698 C 210.186 222.471,209.203 222.479,210.104 222.708 M190.833 222.917 L 189.688 223.057 190.833 223.066 C 191.464 223.072,192.260 223.004,192.604 222.917 L 193.229 222.758 192.604 222.767 C 192.260 222.772,191.464 222.839,190.833 222.917 M207.500 222.908 C 208.007 223.079,210.364 223.202,210.191 223.048 C 210.143 223.006,209.401 222.917,208.542 222.851 C 207.580 222.778,207.179 222.800,207.500 222.908 M194.167 223.125 L 192.396 223.256 194.167 223.272 C 195.141 223.281,196.500 223.218,197.188 223.133 L 198.438 222.978 197.188 222.986 C 196.500 222.991,195.141 223.053,194.167 223.125 M202.813 223.124 C 204.098 223.293,207.846 223.394,207.691 223.256 C 207.643 223.214,206.245 223.130,204.583 223.070 C 202.694 223.002,202.031 223.022,202.813 223.124 M198.281 223.488 C 199.227 223.527,200.773 223.527,201.719 223.488 C 202.664 223.450,201.891 223.418,200.000 223.418 C 198.109 223.418,197.336 223.450,198.281 223.488 " stroke="none" fill="#0491a1" fill-rule="evenodd"></path><path id="path2" d="M195.104 2.097 C 129.621 5.049,80.792 64.506,90.749 129.167 C 98.227 177.720,137.109 215.776,185.669 222.072 C 251.801 230.645,310.450 179.144,310.450 112.500 C 310.450 49.632,257.833 -0.731,195.104 2.097 M209.792 24.671 C 263.200 30.902,298.842 82.486,285.592 134.375 C 271.831 188.265,211.767 216.260,161.753 192.095 C 117.120 170.530,98.859 116.776,121.179 72.660 C 135.130 45.086,161.915 27.138,193.229 24.381 C 196.325 24.108,206.494 24.287,209.792 24.671 M194.925 40.846 C 133.525 45.633,105.881 119.958,149.366 163.335 C 189.326 203.196,257.744 183.187,270.099 128.027 C 280.526 81.478,242.304 37.151,194.925 40.846 M206.189 62.404 C 240.233 66.365,260.470 103.547,245.418 134.479 C 226.994 172.339,173.006 172.339,154.582 134.479 C 137.161 98.679,166.445 57.780,206.189 62.404 " stroke="none" fill="#9b0404" fill-rule="evenodd"></path></g></svg>