<svg id="svg" version="1.1" xmlns="http://www.w3.org/2000/svg" xmlns:xlink="http://www.w3.org/1999/xlink" width="400" height="39.13565426170468" viewBox="0, 0, 400,39.13565426170468"><g id="svgg"><path id="path0" d="M0.533 0.533 C 0.243 0.824,0.243 38.176,0.533 38.467 C 0.868 38.802,6.102 38.743,6.232 38.403 C 6.288 38.258,6.333 36.613,6.333 34.747 L 6.333 31.355 11.985 25.715 L 17.637 20.076 18.130 20.580 C 18.401 20.857,18.764 21.209,18.936 21.362 C 19.109 21.515,19.597 22.002,20.021 22.445 C 20.445 22.888,20.932 23.374,21.104 23.526 C 21.276 23.677,21.651 24.052,21.936 24.359 C 22.222 24.666,22.597 25.041,22.770 25.192 C 22.942 25.344,23.315 25.719,23.598 26.026 C 23.882 26.332,24.369 26.821,24.682 27.111 C 24.994 27.402,25.487 27.889,25.778 28.195 C 26.068 28.500,26.555 28.984,26.861 29.270 C 27.167 29.555,27.537 29.930,27.683 30.103 C 27.829 30.276,28.183 30.604,28.468 30.833 L 28.986 31.250 28.993 34.958 L 29.000 38.667 31.833 38.667 L 34.667 38.667 34.667 19.500 L 34.667 0.333 31.763 0.333 L 28.859 0.333 23.346 5.841 C 20.314 8.870,17.833 11.420,17.833 11.507 C 17.833 11.595,17.721 11.667,17.583 11.667 C 17.446 11.667,17.333 11.599,17.333 11.517 C 17.333 11.435,17.029 11.078,16.657 10.725 C 16.284 10.372,15.741 9.832,15.448 9.526 C 15.156 9.219,14.781 8.844,14.615 8.692 C 14.448 8.541,12.486 6.598,10.255 4.375 L 6.197 0.333 3.465 0.333 C 1.563 0.333,0.673 0.394,0.533 0.533 M42.917 19.500 L 42.917 38.667 45.833 38.665 C 48.737 38.663,48.752 38.661,49.083 38.250 C 49.267 38.022,49.548 37.674,49.708 37.476 C 49.869 37.278,50.000 37.023,50.000 36.909 C 50.000 36.795,50.112 36.659,50.250 36.606 C 50.387 36.554,50.500 36.404,50.500 36.273 C 50.500 36.142,50.612 35.992,50.750 35.940 C 50.887 35.887,51.000 35.729,51.000 35.589 C 51.000 35.448,51.070 35.333,51.155 35.333 C 51.241 35.333,51.363 35.165,51.427 34.958 C 51.490 34.752,51.648 34.471,51.776 34.333 C 52.335 33.736,52.667 33.268,52.667 33.076 C 52.667 32.962,52.779 32.826,52.917 32.773 C 53.054 32.720,53.167 32.562,53.167 32.422 C 53.167 32.282,53.246 32.167,53.342 32.167 C 53.438 32.167,53.596 31.942,53.692 31.667 C 53.788 31.392,53.934 31.167,54.016 31.167 C 54.099 31.167,54.167 31.052,54.167 30.911 C 54.167 30.771,54.279 30.613,54.417 30.560 C 54.554 30.508,54.667 30.358,54.667 30.227 C 54.667 30.096,54.774 29.948,54.905 29.898 C 55.036 29.848,55.220 29.588,55.313 29.320 C 55.406 29.052,55.562 28.833,55.658 28.833 C 55.754 28.833,55.833 28.718,55.833 28.578 C 55.833 28.438,55.939 28.282,56.068 28.233 C 56.198 28.183,56.349 27.960,56.405 27.738 C 56.461 27.515,56.580 27.333,56.670 27.333 C 56.760 27.333,56.833 27.218,56.833 27.078 C 56.833 26.938,56.950 26.778,57.093 26.723 C 57.236 26.668,57.315 26.527,57.270 26.409 C 57.225 26.291,57.295 26.153,57.427 26.102 C 57.559 26.052,57.667 25.896,57.667 25.755 C 57.667 25.615,57.737 25.500,57.822 25.500 C 57.908 25.500,58.025 25.350,58.083 25.167 C 58.223 24.728,58.449 24.743,58.594 25.201 C 58.658 25.403,58.813 25.670,58.939 25.796 C 59.064 25.921,59.167 26.131,59.167 26.262 C 59.167 26.393,59.244 26.500,59.337 26.500 C 59.431 26.500,59.580 26.688,59.667 26.917 C 59.754 27.146,59.902 27.333,59.996 27.333 C 60.090 27.333,60.167 27.434,60.167 27.558 C 60.167 27.756,60.319 27.981,60.997 28.785 C 61.090 28.895,61.167 29.060,61.167 29.151 C 61.167 29.242,61.262 29.377,61.379 29.450 C 61.495 29.523,61.681 29.790,61.792 30.042 C 61.902 30.294,62.069 30.500,62.163 30.500 C 62.257 30.500,62.333 30.615,62.333 30.755 C 62.333 30.896,62.439 31.051,62.568 31.101 C 62.698 31.150,62.850 31.376,62.907 31.602 C 62.963 31.828,63.083 31.969,63.172 31.914 C 63.261 31.859,63.333 31.925,63.333 32.062 C 63.333 32.198,63.451 32.427,63.594 32.570 C 63.737 32.713,63.813 32.898,63.762 32.981 C 63.710 33.064,63.781 33.175,63.918 33.227 C 64.055 33.280,64.167 33.406,64.167 33.507 C 64.167 33.608,64.260 33.788,64.375 33.908 C 64.490 34.028,64.696 34.294,64.833 34.499 C 64.971 34.704,65.215 35.044,65.375 35.254 C 65.535 35.464,65.667 35.701,65.667 35.781 C 65.667 35.861,65.817 36.054,66.000 36.211 C 66.183 36.368,66.333 36.602,66.333 36.731 C 66.333 36.859,66.451 37.009,66.594 37.064 C 66.737 37.119,66.810 37.236,66.756 37.324 C 66.702 37.412,66.809 37.565,66.995 37.664 C 67.181 37.764,67.333 37.923,67.333 38.018 C 67.333 38.596,67.766 38.667,71.321 38.667 C 74.212 38.667,74.833 38.626,74.833 38.434 C 74.833 38.307,74.721 38.159,74.583 38.106 C 74.446 38.054,74.333 37.896,74.333 37.755 C 74.333 37.615,74.264 37.500,74.180 37.500 C 74.095 37.500,73.939 37.237,73.833 36.915 C 73.727 36.593,73.571 36.373,73.487 36.425 C 73.402 36.477,73.333 36.400,73.333 36.255 C 73.333 36.109,73.221 35.946,73.083 35.894 C 72.946 35.841,72.833 35.705,72.833 35.591 C 72.833 35.409,72.675 35.179,72.002 34.381 C 71.909 34.270,71.745 33.989,71.639 33.756 C 71.533 33.524,71.384 33.333,71.307 33.333 C 71.230 33.333,71.167 33.218,71.167 33.078 C 71.167 32.938,71.054 32.780,70.917 32.727 C 70.779 32.674,70.667 32.524,70.667 32.394 C 70.667 32.263,70.554 32.113,70.417 32.060 C 70.279 32.008,70.167 31.865,70.167 31.744 C 70.167 31.623,70.073 31.425,69.958 31.304 C 69.844 31.182,69.638 30.858,69.500 30.583 C 69.363 30.308,69.157 30.023,69.042 29.950 C 68.927 29.877,68.833 29.742,68.833 29.651 C 68.833 29.474,68.674 29.261,67.975 28.502 C 67.732 28.238,67.581 27.974,67.640 27.915 C 67.699 27.857,67.617 27.735,67.457 27.646 C 67.297 27.557,67.167 27.375,67.167 27.242 C 67.167 27.109,67.093 27.000,67.003 27.000 C 66.913 27.000,66.794 26.818,66.738 26.595 C 66.682 26.373,66.531 26.150,66.402 26.101 C 66.272 26.051,66.167 25.902,66.167 25.769 C 66.167 25.636,66.110 25.503,66.042 25.472 C 65.973 25.442,65.692 25.079,65.417 24.667 C 64.868 23.843,64.812 23.767,64.330 23.183 C 64.149 22.963,64.000 22.681,64.000 22.558 C 64.000 22.434,63.923 22.333,63.829 22.333 C 63.735 22.333,63.587 22.146,63.500 21.917 C 63.413 21.688,63.273 21.500,63.189 21.500 C 63.105 21.500,62.989 21.313,62.932 21.083 C 62.874 20.854,62.753 20.667,62.663 20.667 C 62.574 20.667,62.500 20.552,62.500 20.411 C 62.500 20.271,62.387 20.113,62.250 20.060 C 62.112 20.008,62.000 19.871,62.000 19.758 C 62.000 19.645,61.850 19.416,61.667 19.250 C 61.483 19.084,61.333 18.845,61.333 18.719 C 61.333 18.593,61.221 18.446,61.083 18.394 C 60.946 18.341,60.833 18.191,60.833 18.060 C 60.833 17.930,60.721 17.780,60.583 17.727 C 60.446 17.674,60.333 17.532,60.333 17.411 C 60.333 17.290,60.240 17.091,60.125 16.970 C 60.010 16.849,59.804 16.525,59.667 16.250 C 59.530 15.975,59.323 15.690,59.209 15.617 C 59.094 15.543,59.000 15.409,59.000 15.318 C 59.000 15.227,58.853 14.995,58.672 14.801 C 58.492 14.608,58.377 14.397,58.417 14.333 C 58.456 14.269,58.309 14.121,58.090 14.004 C 57.871 13.887,57.647 13.613,57.593 13.395 C 57.538 13.178,57.422 13.000,57.335 13.000 C 57.248 13.000,57.217 12.897,57.265 12.772 C 57.313 12.646,57.236 12.498,57.093 12.443 C 56.950 12.389,56.833 12.237,56.833 12.106 C 56.833 11.976,56.721 11.826,56.583 11.773 C 56.446 11.720,56.333 11.562,56.333 11.422 C 56.333 11.282,56.260 11.167,56.170 11.167 C 56.080 11.167,55.959 10.979,55.902 10.750 C 55.844 10.521,55.728 10.333,55.644 10.333 C 55.560 10.333,55.420 10.146,55.333 9.917 C 55.246 9.688,55.099 9.500,55.007 9.500 C 54.915 9.500,54.794 9.318,54.738 9.095 C 54.682 8.873,54.531 8.650,54.402 8.601 C 54.272 8.551,54.167 8.396,54.167 8.255 C 54.167 8.115,54.090 8.000,53.996 8.000 C 53.902 8.000,53.754 7.813,53.667 7.583 C 53.580 7.354,53.431 7.167,53.337 7.167 C 53.244 7.167,53.167 7.014,53.167 6.828 C 53.167 6.642,53.054 6.446,52.917 6.394 C 52.779 6.341,52.667 6.191,52.667 6.060 C 52.667 5.930,52.561 5.782,52.432 5.733 C 52.302 5.683,52.151 5.460,52.095 5.238 C 52.039 5.015,51.929 4.833,51.850 4.833 C 51.772 4.833,51.614 4.609,51.501 4.335 C 51.387 4.062,51.228 3.879,51.147 3.929 C 51.066 3.979,51.000 3.900,51.000 3.755 C 51.000 3.609,50.894 3.449,50.765 3.399 C 50.636 3.350,50.484 3.127,50.429 2.905 C 50.373 2.682,50.253 2.500,50.163 2.500 C 50.074 2.500,50.000 2.385,50.000 2.245 C 50.000 2.104,49.894 1.949,49.765 1.899 C 49.636 1.850,49.488 1.641,49.436 1.435 C 49.175 0.395,48.972 0.333,45.814 0.333 L 42.917 0.333 42.917 19.500 M80.583 3.333 C 80.583 4.983,80.640 6.333,80.708 6.333 C 80.777 6.333,80.833 6.448,80.833 6.589 C 80.833 6.729,80.941 6.885,81.073 6.936 C 81.205 6.986,81.361 7.247,81.420 7.514 C 81.478 7.781,81.586 8.000,81.660 8.000 C 81.733 8.000,81.886 8.225,82.000 8.500 C 82.114 8.775,82.273 9.000,82.354 9.000 C 82.434 9.000,82.500 9.115,82.500 9.255 C 82.500 9.396,82.608 9.552,82.740 9.602 C 82.872 9.653,83.026 9.907,83.083 10.167 C 83.140 10.426,83.295 10.680,83.427 10.731 C 83.559 10.781,83.667 10.930,83.667 11.060 C 83.667 11.191,83.770 11.337,83.895 11.385 C 84.021 11.434,84.177 11.685,84.242 11.943 C 84.307 12.202,84.410 12.452,84.472 12.498 C 84.678 12.656,85.333 13.652,85.333 13.809 C 85.333 13.894,85.439 14.005,85.568 14.054 C 85.696 14.104,85.853 14.375,85.915 14.657 C 85.976 14.939,86.096 15.127,86.180 15.075 C 86.264 15.023,86.333 15.086,86.333 15.215 C 86.333 15.344,86.483 15.622,86.667 15.833 C 86.850 16.045,87.000 16.311,87.000 16.424 C 87.000 16.538,87.117 16.676,87.261 16.731 C 87.404 16.786,87.477 16.902,87.424 16.989 C 87.370 17.075,87.422 17.207,87.538 17.281 C 87.655 17.356,87.863 17.642,88.000 17.917 C 88.137 18.192,88.343 18.477,88.458 18.550 C 88.573 18.623,88.667 18.821,88.667 18.990 C 88.667 19.159,88.779 19.341,88.917 19.394 C 89.054 19.446,89.167 19.598,89.167 19.731 C 89.167 19.864,89.226 19.997,89.299 20.028 C 89.371 20.058,89.603 20.365,89.812 20.708 C 90.022 21.052,90.271 21.333,90.365 21.333 C 90.459 21.333,90.492 21.446,90.440 21.583 C 90.387 21.721,90.415 21.833,90.502 21.833 C 90.589 21.833,90.707 22.021,90.765 22.250 C 90.822 22.479,90.936 22.667,91.018 22.667 C 91.100 22.667,91.168 22.760,91.170 22.875 C 91.171 22.990,91.358 23.260,91.586 23.475 C 92.279 24.133,92.020 24.167,86.240 24.167 L 80.667 24.167 80.667 31.153 C 80.667 34.996,80.621 38.258,80.566 38.403 C 80.476 38.637,80.790 38.667,83.381 38.667 C 86.891 38.667,86.500 39.264,86.500 33.903 L 86.500 29.667 90.969 29.667 L 95.437 29.667 95.795 30.150 C 95.991 30.416,96.203 30.835,96.265 31.082 C 96.339 31.379,96.420 31.462,96.504 31.327 C 96.585 31.196,96.672 31.311,96.745 31.646 C 96.809 31.934,96.924 32.130,97.002 32.082 C 97.079 32.034,97.195 32.162,97.260 32.365 C 97.325 32.568,97.480 32.837,97.605 32.962 C 97.731 33.088,97.833 33.290,97.833 33.411 C 97.833 33.532,97.946 33.674,98.083 33.727 C 98.221 33.780,98.333 33.934,98.333 34.070 C 98.333 34.206,98.427 34.377,98.542 34.450 C 98.656 34.523,98.936 34.940,99.163 35.375 C 99.390 35.810,99.627 36.167,99.689 36.167 C 99.750 36.167,99.879 36.392,99.975 36.667 C 100.071 36.942,100.222 37.167,100.311 37.167 C 100.401 37.167,100.523 37.392,100.584 37.668 C 100.644 37.944,100.757 38.130,100.835 38.082 C 100.913 38.034,101.024 38.146,101.083 38.331 C 101.227 38.787,108.167 38.865,108.167 38.411 C 108.167 38.271,108.059 38.115,107.927 38.064 C 107.795 38.014,107.639 37.753,107.580 37.485 C 107.521 37.216,107.404 37.040,107.320 37.092 C 107.236 37.144,107.167 37.081,107.167 36.952 C 107.167 36.823,107.017 36.545,106.833 36.333 C 106.650 36.122,106.500 35.856,106.500 35.742 C 106.500 35.629,106.395 35.495,106.266 35.446 C 106.137 35.396,105.981 35.125,105.919 34.843 C 105.857 34.561,105.743 34.370,105.665 34.418 C 105.587 34.466,105.471 34.338,105.407 34.135 C 105.342 33.932,105.187 33.663,105.061 33.538 C 104.936 33.412,104.833 33.210,104.833 33.089 C 104.833 32.968,104.721 32.826,104.583 32.773 C 104.446 32.720,104.333 32.570,104.333 32.440 C 104.333 32.309,104.228 32.162,104.099 32.112 C 103.970 32.063,103.816 31.799,103.756 31.525 C 103.695 31.252,103.538 30.986,103.406 30.936 C 103.275 30.885,103.167 30.729,103.167 30.589 C 103.167 30.448,103.093 30.333,103.003 30.333 C 102.913 30.333,102.794 30.151,102.738 29.929 C 102.682 29.706,102.526 29.482,102.391 29.430 C 102.256 29.378,102.188 29.268,102.239 29.185 C 102.290 29.102,102.104 28.789,101.824 28.490 C 101.323 27.953,101.368 27.676,101.958 27.669 C 102.073 27.668,102.167 27.592,102.167 27.500 C 102.167 27.408,102.268 27.333,102.391 27.333 C 102.514 27.333,102.751 27.183,102.917 27.000 C 103.083 26.817,103.282 26.667,103.359 26.667 C 103.557 26.667,105.338 24.863,105.830 24.164 C 106.055 23.845,106.335 23.484,106.453 23.363 C 106.570 23.242,106.667 23.031,106.667 22.895 C 106.667 22.759,106.736 22.690,106.820 22.742 C 106.904 22.794,107.022 22.611,107.083 22.335 C 107.144 22.059,107.247 21.833,107.313 21.833 C 107.468 21.833,107.913 20.647,107.859 20.375 C 107.837 20.260,107.894 20.167,107.987 20.167 C 108.079 20.167,108.205 19.792,108.266 19.333 C 108.327 18.875,108.443 18.500,108.524 18.500 C 108.710 18.500,108.723 18.251,108.729 14.614 C 108.732 12.664,108.672 11.606,108.554 11.531 C 108.455 11.468,108.321 11.098,108.256 10.708 C 108.191 10.319,108.065 10.000,107.976 10.000 C 107.886 10.000,107.858 9.928,107.912 9.840 C 108.013 9.677,107.702 9.003,107.437 8.810 C 107.356 8.752,107.342 8.621,107.405 8.519 C 107.468 8.417,107.448 8.333,107.361 8.333 C 107.274 8.333,107.153 8.137,107.093 7.897 C 107.033 7.656,106.893 7.365,106.783 7.248 C 106.673 7.132,106.433 6.829,106.250 6.574 C 106.067 6.320,105.823 6.017,105.708 5.901 C 105.594 5.785,105.500 5.629,105.500 5.553 C 105.500 5.478,105.077 5.041,104.561 4.583 C 104.044 4.125,103.433 3.581,103.203 3.375 C 102.973 3.169,102.687 3.000,102.567 3.000 C 102.448 3.000,102.290 2.906,102.217 2.792 C 102.056 2.541,101.579 2.224,100.958 1.957 C 100.706 1.849,100.500 1.702,100.500 1.630 C 100.500 1.559,100.355 1.500,100.178 1.500 C 100.000 1.500,99.644 1.413,99.386 1.307 C 99.128 1.200,98.812 1.131,98.684 1.153 C 98.557 1.174,98.403 1.113,98.344 1.017 C 98.284 0.921,97.695 0.792,97.035 0.730 C 96.374 0.669,95.833 0.555,95.833 0.476 C 95.833 0.398,92.402 0.333,88.208 0.333 L 80.583 0.333 80.583 3.333 M113.167 0.566 C 113.167 0.693,113.279 0.841,113.417 0.894 C 113.554 0.946,113.667 1.104,113.667 1.245 C 113.667 1.385,113.734 1.500,113.817 1.500 C 113.900 1.500,114.046 1.725,114.142 2.000 C 114.238 2.275,114.395 2.500,114.491 2.500 C 114.588 2.500,114.667 2.615,114.667 2.755 C 114.667 2.896,114.779 3.054,114.917 3.106 C 115.054 3.159,115.167 3.308,115.167 3.436 C 115.167 3.565,115.317 3.798,115.500 3.955 C 115.683 4.112,115.833 4.337,115.833 4.454 C 115.833 4.571,115.904 4.667,115.991 4.667 C 116.141 4.667,116.451 5.148,116.821 5.958 C 116.915 6.165,117.069 6.333,117.163 6.333 C 117.256 6.333,117.333 6.448,117.333 6.589 C 117.333 6.729,117.439 6.884,117.568 6.934 C 117.698 6.984,117.849 7.206,117.905 7.429 C 117.961 7.651,118.080 7.833,118.170 7.833 C 118.260 7.833,118.333 7.916,118.333 8.018 C 118.333 8.119,118.521 8.425,118.750 8.697 C 118.979 8.969,119.167 9.303,119.167 9.439 C 119.167 9.575,119.242 9.640,119.333 9.583 C 119.425 9.527,119.500 9.600,119.500 9.745 C 119.500 9.891,119.612 10.054,119.750 10.106 C 119.888 10.159,120.000 10.303,120.000 10.426 C 120.000 10.549,120.131 10.723,120.290 10.813 C 120.450 10.902,120.529 11.027,120.465 11.091 C 120.401 11.154,120.439 11.301,120.550 11.416 C 120.660 11.531,120.862 11.794,121.000 11.999 C 121.138 12.204,121.381 12.544,121.542 12.754 C 121.702 12.964,121.833 13.218,121.833 13.318 C 121.833 13.418,121.899 13.500,121.980 13.500 C 122.060 13.500,122.217 13.720,122.328 13.988 C 122.440 14.256,122.636 14.517,122.765 14.566 C 122.894 14.616,123.000 14.763,123.000 14.894 C 123.000 15.024,123.112 15.174,123.250 15.227 C 123.388 15.280,123.500 15.438,123.500 15.578 C 123.500 15.718,123.574 15.833,123.663 15.833 C 123.753 15.833,123.874 16.021,123.932 16.250 C 123.989 16.479,124.105 16.667,124.189 16.667 C 124.273 16.667,124.413 16.854,124.500 17.083 C 124.587 17.312,124.727 17.500,124.811 17.500 C 124.895 17.500,125.011 17.688,125.068 17.917 C 125.126 18.146,125.247 18.333,125.337 18.333 C 125.426 18.333,125.500 18.448,125.500 18.589 C 125.500 18.729,125.610 18.886,125.745 18.938 C 125.880 18.989,126.081 19.283,126.192 19.590 C 126.303 19.898,126.455 20.111,126.530 20.065 C 126.605 20.018,126.667 20.100,126.667 20.245 C 126.667 20.391,126.779 20.554,126.917 20.606 C 127.054 20.659,127.167 20.809,127.167 20.940 C 127.167 21.070,127.279 21.220,127.417 21.273 C 127.554 21.326,127.667 21.468,127.667 21.589 C 127.667 21.710,127.765 21.909,127.885 22.030 C 128.005 22.151,128.209 22.488,128.337 22.780 C 128.466 23.071,128.624 23.276,128.690 23.236 C 128.756 23.195,128.857 23.313,128.916 23.498 C 128.975 23.682,129.092 23.833,129.178 23.833 C 129.263 23.833,129.333 23.948,129.333 24.089 C 129.333 24.229,129.446 24.387,129.583 24.440 C 129.721 24.492,129.833 24.642,129.833 24.773 C 129.833 24.904,129.939 25.051,130.068 25.101 C 130.198 25.150,130.349 25.373,130.405 25.595 C 130.461 25.818,130.578 26.000,130.665 26.000 C 130.752 26.000,130.783 26.103,130.735 26.228 C 130.687 26.354,130.764 26.502,130.907 26.557 C 131.050 26.611,131.167 26.763,131.167 26.894 C 131.167 27.024,131.279 27.174,131.417 27.227 C 131.554 27.280,131.667 27.438,131.667 27.578 C 131.667 27.718,131.740 27.833,131.830 27.833 C 131.920 27.833,132.041 28.023,132.099 28.254 C 132.157 28.486,132.348 28.752,132.524 28.846 C 132.699 28.940,132.807 29.075,132.763 29.145 C 132.720 29.216,132.830 29.399,133.009 29.552 C 133.187 29.705,133.333 29.935,133.333 30.064 C 133.333 30.192,133.446 30.341,133.583 30.394 C 133.721 30.446,133.833 30.596,133.833 30.727 C 133.833 30.858,133.946 31.008,134.083 31.060 C 134.221 31.113,134.333 31.260,134.333 31.386 C 134.333 31.588,134.485 31.813,135.164 32.618 C 135.257 32.729,135.333 32.881,135.333 32.956 C 135.333 33.031,135.483 33.221,135.667 33.378 C 135.850 33.535,136.000 33.777,136.000 33.915 C 136.000 34.053,136.077 34.167,136.171 34.167 C 136.265 34.167,136.413 34.354,136.500 34.583 C 136.587 34.813,136.735 35.000,136.829 35.000 C 136.923 35.000,137.000 35.115,137.000 35.255 C 137.000 35.396,137.106 35.551,137.235 35.601 C 137.364 35.650,137.516 35.873,137.571 36.095 C 137.627 36.318,137.747 36.500,137.837 36.500 C 137.926 36.500,138.000 36.572,138.000 36.659 C 138.000 36.747,138.188 37.103,138.417 37.451 C 139.294 38.782,138.959 38.680,142.267 38.629 L 145.250 38.583 145.250 19.500 L 145.250 0.417 142.482 0.371 C 140.274 0.335,139.675 0.373,139.521 0.558 C 139.377 0.732,139.339 4.331,139.372 14.650 C 139.402 23.873,139.362 28.381,139.252 28.129 C 139.082 27.736,139.042 27.677,138.502 27.022 C 138.323 26.805,138.132 26.486,138.077 26.314 C 138.022 26.141,137.908 26.000,137.822 26.000 C 137.737 26.000,137.667 25.887,137.667 25.748 C 137.667 25.610,137.517 25.368,137.333 25.211 C 137.150 25.054,137.000 24.830,137.000 24.713 C 137.000 24.596,136.923 24.500,136.829 24.500 C 136.735 24.500,136.587 24.313,136.500 24.083 C 136.413 23.854,136.273 23.667,136.189 23.667 C 136.105 23.667,135.989 23.479,135.932 23.250 C 135.874 23.021,135.753 22.833,135.663 22.833 C 135.574 22.833,135.500 22.718,135.500 22.578 C 135.500 22.438,135.387 22.280,135.250 22.227 C 135.112 22.174,135.000 22.067,135.000 21.990 C 135.000 21.706,132.661 18.333,132.465 18.333 C 132.392 18.333,132.333 18.218,132.333 18.078 C 132.333 17.938,132.221 17.780,132.084 17.727 C 131.947 17.675,131.877 17.564,131.928 17.481 C 131.979 17.398,131.904 17.213,131.761 17.070 C 131.617 16.927,131.500 16.710,131.500 16.589 C 131.500 16.468,131.387 16.326,131.250 16.273 C 131.112 16.220,131.000 16.070,131.000 15.940 C 131.000 15.809,130.887 15.659,130.750 15.606 C 130.612 15.554,130.500 15.396,130.500 15.255 C 130.500 15.115,130.437 15.000,130.360 15.000 C 130.283 15.000,130.133 14.810,130.027 14.577 C 129.921 14.344,129.758 14.063,129.664 13.952 C 128.987 13.149,128.833 12.922,128.833 12.724 C 128.833 12.601,128.756 12.500,128.663 12.500 C 128.569 12.500,128.420 12.313,128.333 12.083 C 128.246 11.854,128.098 11.667,128.004 11.667 C 127.910 11.667,127.833 11.552,127.833 11.411 C 127.833 11.271,127.721 11.113,127.583 11.060 C 127.446 11.008,127.333 10.820,127.333 10.644 C 127.333 10.467,127.221 10.280,127.083 10.227 C 126.946 10.174,126.833 10.024,126.833 9.894 C 126.833 9.763,126.728 9.616,126.598 9.566 C 126.469 9.516,126.319 9.299,126.265 9.083 C 126.211 8.867,126.073 8.591,125.958 8.470 C 125.844 8.349,125.542 7.944,125.288 7.569 C 125.034 7.195,124.697 6.745,124.538 6.569 C 124.380 6.394,124.138 6.025,124.000 5.750 C 123.863 5.475,123.657 5.190,123.542 5.117 C 123.427 5.043,123.333 4.875,123.333 4.742 C 123.333 4.609,123.260 4.500,123.170 4.500 C 123.080 4.500,122.959 4.313,122.902 4.083 C 122.844 3.854,122.728 3.667,122.644 3.667 C 122.560 3.667,122.420 3.479,122.333 3.250 C 122.246 3.021,122.106 2.833,122.022 2.833 C 121.938 2.833,121.822 2.646,121.765 2.417 C 121.707 2.188,121.587 2.000,121.497 2.000 C 121.407 2.000,121.333 1.904,121.333 1.787 C 121.333 1.670,121.202 1.457,121.042 1.313 C 120.881 1.169,120.640 0.890,120.505 0.693 C 120.194 0.237,113.167 0.115,113.167 0.566 M153.434 0.597 C 153.197 1.216,153.325 22.285,153.567 22.487 C 153.739 22.629,155.637 22.668,160.718 22.632 C 164.522 22.605,167.600 22.640,167.558 22.708 C 167.515 22.777,167.372 22.833,167.240 22.833 C 167.108 22.833,167.000 22.912,167.000 23.009 C 167.000 23.105,166.781 23.260,166.513 23.354 C 166.246 23.447,165.986 23.631,165.935 23.762 C 165.885 23.893,165.763 24.000,165.665 24.000 C 165.566 24.000,165.395 24.076,165.285 24.170 C 164.393 24.922,164.063 25.166,163.936 25.166 C 163.855 25.167,163.614 25.354,163.402 25.583 C 163.190 25.812,162.954 26.000,162.878 26.000 C 162.803 26.000,162.612 26.150,162.455 26.333 C 162.298 26.517,162.065 26.667,161.936 26.667 C 161.808 26.667,161.659 26.779,161.606 26.917 C 161.554 27.054,161.427 27.167,161.325 27.167 C 161.133 27.167,159.626 28.320,159.528 28.542 C 159.497 28.610,159.367 28.667,159.238 28.667 C 159.108 28.667,158.909 28.817,158.795 29.000 C 158.680 29.183,158.491 29.333,158.375 29.333 C 158.259 29.333,158.035 29.483,157.878 29.667 C 157.721 29.850,157.531 30.000,157.456 30.000 C 157.380 30.000,157.121 30.183,156.879 30.408 C 156.637 30.632,156.378 30.778,156.303 30.731 C 156.228 30.685,156.167 30.729,156.167 30.829 C 156.167 30.929,156.035 31.059,155.875 31.118 C 155.715 31.177,155.432 31.385,155.246 31.580 C 155.061 31.775,154.780 31.985,154.621 32.046 C 154.463 32.106,154.333 32.226,154.333 32.312 C 154.333 32.397,154.108 32.546,153.833 32.642 L 153.333 32.816 153.333 35.478 C 153.333 36.942,153.379 38.258,153.434 38.403 C 153.525 38.640,154.745 38.667,165.518 38.667 L 177.500 38.667 177.500 35.743 L 177.500 32.820 170.412 32.868 C 165.720 32.900,163.453 32.862,163.704 32.755 C 163.913 32.666,164.143 32.497,164.217 32.380 C 164.290 32.263,164.461 32.167,164.597 32.167 C 164.733 32.167,164.887 32.054,164.940 31.917 C 164.992 31.779,165.127 31.667,165.238 31.667 C 165.349 31.667,165.734 31.404,166.095 31.082 C 166.455 30.761,166.885 30.455,167.050 30.402 C 167.215 30.349,167.590 30.085,167.884 29.815 C 168.177 29.545,168.529 29.223,168.667 29.100 C 168.804 28.976,169.078 28.826,169.276 28.765 C 169.474 28.704,169.678 28.544,169.729 28.410 C 169.781 28.276,169.904 28.167,170.003 28.167 C 170.102 28.167,170.356 27.979,170.569 27.750 C 170.781 27.521,171.028 27.333,171.118 27.333 C 171.208 27.333,171.417 27.183,171.583 27.000 C 171.749 26.817,171.983 26.667,172.103 26.667 C 172.223 26.667,172.402 26.517,172.500 26.333 C 172.598 26.150,172.761 26.000,172.862 26.000 C 172.963 26.000,173.204 25.831,173.398 25.625 C 173.591 25.419,173.956 25.158,174.208 25.045 C 174.460 24.933,174.667 24.764,174.667 24.670 C 174.667 24.577,174.762 24.500,174.880 24.500 C 174.997 24.500,175.221 24.350,175.378 24.167 C 175.535 23.983,175.764 23.833,175.887 23.833 C 176.010 23.833,176.212 23.644,176.335 23.413 C 176.459 23.182,176.637 23.018,176.731 23.049 C 177.367 23.261,177.500 22.669,177.500 19.630 L 177.500 16.667 168.331 16.667 L 159.162 16.667 159.206 11.494 L 159.250 6.322 168.375 6.330 L 177.500 6.339 177.500 3.336 L 177.500 0.333 165.518 0.333 C 154.745 0.333,153.525 0.360,153.434 0.597 M184.333 19.500 L 184.333 38.667 197.125 38.667 L 209.917 38.667 209.917 35.756 C 209.917 32.908,209.909 32.841,209.542 32.644 C 209.335 32.534,209.167 32.389,209.167 32.323 C 209.167 32.257,208.754 31.801,208.249 31.310 C 207.745 30.819,207.238 30.323,207.124 30.209 C 207.010 30.094,206.630 29.719,206.279 29.375 C 205.929 29.031,205.516 28.609,205.363 28.436 C 205.209 28.264,204.833 27.889,204.528 27.603 C 204.222 27.317,203.735 26.833,203.444 26.528 C 203.154 26.222,202.667 25.735,202.361 25.444 C 202.055 25.154,201.568 24.666,201.278 24.359 C 200.987 24.052,200.612 23.677,200.443 23.526 C 200.274 23.374,197.930 21.049,195.235 18.358 L 190.333 13.466 190.333 7.138 C 190.333 1.875,190.293 0.769,190.095 0.571 C 189.908 0.384,189.267 0.333,187.095 0.333 L 184.333 0.333 184.333 19.500 M202.000 0.667 C 202.000 0.850,202.074 1.000,202.163 1.000 C 202.253 1.000,202.374 1.188,202.432 1.417 C 202.489 1.646,202.605 1.833,202.689 1.833 C 202.773 1.833,202.913 2.021,203.000 2.250 C 203.087 2.479,203.227 2.667,203.311 2.667 C 203.395 2.667,203.511 2.854,203.568 3.083 C 203.626 3.313,203.747 3.500,203.837 3.500 C 203.926 3.500,204.000 3.615,204.000 3.755 C 204.000 3.896,204.112 4.054,204.250 4.106 C 204.387 4.159,204.500 4.309,204.500 4.440 C 204.500 4.570,204.606 4.718,204.735 4.767 C 204.864 4.817,205.013 5.031,205.067 5.243 C 205.120 5.454,205.385 5.865,205.656 6.156 C 205.928 6.446,206.196 6.830,206.253 7.008 C 206.309 7.187,206.426 7.333,206.511 7.333 C 206.597 7.333,206.667 7.442,206.667 7.575 C 206.667 7.708,206.761 7.877,206.875 7.950 C 206.990 8.023,207.196 8.308,207.334 8.583 C 207.471 8.858,207.677 9.182,207.792 9.304 C 207.906 9.425,208.000 9.631,208.000 9.762 C 208.000 9.893,208.065 10.000,208.143 10.000 C 208.303 10.000,209.667 11.928,209.667 12.154 C 209.667 12.233,209.779 12.341,209.917 12.394 C 210.054 12.446,210.167 12.596,210.167 12.727 C 210.167 12.858,210.279 13.008,210.417 13.060 C 210.554 13.113,210.667 13.309,210.667 13.495 C 210.667 13.681,210.744 13.833,210.837 13.833 C 210.931 13.833,211.080 14.021,211.167 14.250 C 211.254 14.479,211.402 14.667,211.496 14.667 C 211.590 14.667,211.667 14.764,211.667 14.883 C 211.667 15.119,212.084 15.718,212.542 16.139 C 212.702 16.287,212.833 16.495,212.833 16.603 C 212.833 16.710,212.946 16.841,213.083 16.894 C 213.221 16.946,213.333 17.144,213.333 17.333 C 213.333 17.522,213.446 17.720,213.583 17.773 C 213.721 17.826,213.833 17.976,213.833 18.106 C 213.833 18.237,213.946 18.387,214.083 18.440 C 214.221 18.492,214.333 18.629,214.333 18.742 C 214.333 18.856,214.483 19.122,214.667 19.333 C 214.850 19.545,215.000 19.774,215.000 19.843 C 215.000 19.912,215.263 20.294,215.585 20.693 C 215.906 21.091,216.229 21.492,216.301 21.583 C 216.374 21.675,216.484 21.881,216.545 22.042 C 216.606 22.202,216.734 22.333,216.828 22.333 C 216.923 22.333,217.000 22.448,217.000 22.589 C 217.000 22.729,217.117 22.889,217.260 22.943 C 217.402 22.998,217.480 23.146,217.431 23.272 C 217.383 23.397,217.415 23.500,217.502 23.500 C 217.589 23.500,217.706 23.682,217.762 23.905 C 217.818 24.127,217.969 24.350,218.098 24.399 C 218.228 24.449,218.333 24.596,218.333 24.727 C 218.333 24.858,218.446 25.008,218.583 25.060 C 218.721 25.113,218.833 25.237,218.833 25.335 C 218.833 25.433,218.981 25.672,219.161 25.866 C 219.341 26.059,219.451 26.277,219.406 26.350 C 219.361 26.423,219.476 26.565,219.662 26.664 C 219.848 26.764,220.000 26.955,220.000 27.089 C 220.000 27.223,220.074 27.333,220.163 27.333 C 220.253 27.333,220.374 27.521,220.432 27.750 C 220.489 27.979,220.605 28.167,220.689 28.167 C 220.773 28.167,220.913 28.354,221.000 28.583 C 221.087 28.813,221.227 29.000,221.311 29.000 C 221.395 29.000,221.511 29.188,221.568 29.417 C 221.626 29.646,221.747 29.833,221.837 29.833 C 221.926 29.833,222.000 29.929,222.000 30.046 C 222.000 30.163,222.131 30.383,222.292 30.535 C 222.768 30.984,222.995 31.300,223.165 31.746 C 223.253 31.977,223.402 32.167,223.496 32.167 C 223.590 32.167,223.667 32.282,223.667 32.422 C 223.667 32.562,223.772 32.718,223.902 32.767 C 224.031 32.817,224.182 33.040,224.238 33.262 C 224.294 33.485,224.413 33.667,224.503 33.667 C 224.593 33.667,224.667 33.782,224.667 33.922 C 224.667 34.062,224.779 34.220,224.917 34.273 C 225.054 34.326,225.167 34.459,225.167 34.570 C 225.167 34.680,225.317 34.931,225.500 35.128 C 225.683 35.325,225.833 35.567,225.833 35.665 C 225.833 35.763,225.946 35.887,226.083 35.940 C 226.221 35.992,226.333 36.142,226.333 36.273 C 226.333 36.404,226.446 36.554,226.583 36.606 C 226.721 36.659,226.833 36.809,226.833 36.940 C 226.833 37.070,226.946 37.220,227.083 37.273 C 227.221 37.326,227.333 37.470,227.333 37.593 C 227.333 38.484,227.958 38.667,231.019 38.667 L 233.917 38.667 233.917 19.500 L 233.917 0.333 231.059 0.333 C 228.608 0.333,228.188 0.371,228.101 0.597 C 228.046 0.742,228.000 6.925,228.000 14.337 C 228.000 26.934,227.932 29.032,227.570 27.591 C 227.512 27.359,227.406 27.205,227.335 27.249 C 227.264 27.293,227.107 27.086,226.987 26.790 C 226.868 26.493,226.671 26.190,226.551 26.117 C 226.431 26.043,226.333 25.883,226.333 25.760 C 226.333 25.636,226.221 25.492,226.083 25.440 C 225.946 25.387,225.833 25.229,225.833 25.089 C 225.833 24.948,225.766 24.833,225.683 24.833 C 225.600 24.833,225.454 24.608,225.358 24.333 C 225.262 24.058,225.105 23.833,225.009 23.833 C 224.912 23.833,224.833 23.718,224.833 23.578 C 224.833 23.438,224.728 23.282,224.598 23.233 C 224.469 23.183,224.318 22.960,224.262 22.738 C 224.206 22.515,224.087 22.333,223.997 22.333 C 223.907 22.333,223.833 22.218,223.833 22.078 C 223.833 21.938,223.721 21.780,223.583 21.727 C 223.446 21.674,223.333 21.541,223.333 21.430 C 223.333 21.320,223.198 21.084,223.033 20.906 C 222.868 20.729,222.683 20.452,222.622 20.292 C 222.561 20.131,222.433 20.000,222.339 20.000 C 222.244 20.000,222.167 19.885,222.167 19.745 C 222.167 19.604,222.061 19.449,221.932 19.399 C 221.802 19.350,221.651 19.127,221.595 18.905 C 221.539 18.682,221.420 18.500,221.330 18.500 C 221.240 18.500,221.167 18.413,221.167 18.307 C 221.167 18.201,220.979 17.869,220.750 17.569 C 220.521 17.268,220.333 16.974,220.333 16.916 C 220.333 16.857,220.240 16.711,220.125 16.590 C 219.802 16.249,219.350 15.597,219.341 15.458 C 219.337 15.390,219.183 15.183,219.000 15.000 C 218.817 14.817,218.667 14.562,218.667 14.434 C 218.667 14.307,218.554 14.159,218.417 14.106 C 218.279 14.054,218.167 13.904,218.167 13.773 C 218.167 13.642,218.054 13.492,217.917 13.440 C 217.779 13.387,217.667 13.229,217.667 13.089 C 217.667 12.948,217.601 12.833,217.520 12.833 C 217.440 12.833,217.281 12.608,217.167 12.333 C 217.053 12.058,216.894 11.833,216.813 11.833 C 216.733 11.833,216.667 11.718,216.667 11.578 C 216.667 11.438,216.554 11.280,216.417 11.227 C 216.279 11.174,216.167 11.042,216.167 10.933 C 216.167 10.712,215.737 10.103,215.292 9.694 C 215.131 9.547,215.000 9.365,215.000 9.290 C 215.000 9.120,214.295 8.103,214.125 8.028 C 214.056 7.997,214.000 7.864,214.000 7.731 C 214.000 7.598,213.887 7.446,213.750 7.394 C 213.612 7.341,213.500 7.191,213.500 7.060 C 213.500 6.930,213.383 6.778,213.240 6.723 C 213.098 6.668,213.020 6.521,213.069 6.395 C 213.117 6.269,213.085 6.167,212.998 6.167 C 212.911 6.167,212.794 5.985,212.738 5.762 C 212.682 5.540,212.531 5.317,212.402 5.267 C 212.272 5.218,212.167 5.062,212.167 4.922 C 212.167 4.782,212.095 4.667,212.007 4.667 C 211.919 4.667,211.642 4.310,211.390 3.875 C 211.138 3.440,210.854 3.030,210.758 2.964 C 210.662 2.899,210.583 2.781,210.583 2.703 C 210.583 2.624,210.452 2.428,210.292 2.268 C 210.131 2.107,210.000 1.877,210.000 1.756 C 210.000 1.635,209.887 1.492,209.750 1.440 C 209.612 1.387,209.500 1.266,209.500 1.172 C 209.500 1.077,209.350 0.850,209.167 0.667 C 208.649 0.149,202.000 0.149,202.000 0.667 M242.167 11.500 L 242.167 22.667 248.995 22.667 C 256.106 22.667,256.636 22.725,255.155 23.338 C 254.886 23.449,254.667 23.605,254.667 23.684 C 254.667 23.763,254.489 23.872,254.271 23.926 C 254.054 23.981,253.779 24.207,253.660 24.429 C 253.541 24.652,253.344 24.833,253.222 24.833 C 253.100 24.833,252.857 24.976,252.683 25.150 C 252.509 25.324,252.216 25.515,252.032 25.573 C 251.848 25.632,251.655 25.789,251.604 25.923 C 251.553 26.057,251.404 26.167,251.273 26.167 C 251.142 26.167,250.992 26.279,250.940 26.417 C 250.887 26.554,250.729 26.667,250.589 26.667 C 250.448 26.667,250.333 26.729,250.333 26.805 C 250.333 26.881,250.128 27.050,249.876 27.180 C 249.625 27.310,249.260 27.585,249.066 27.792 C 248.871 27.998,248.624 28.167,248.517 28.167 C 248.410 28.167,248.281 28.276,248.229 28.410 C 248.178 28.544,247.993 28.699,247.819 28.755 C 247.645 28.810,247.376 28.982,247.221 29.136 C 247.067 29.290,246.892 29.417,246.833 29.417 C 246.774 29.417,246.595 29.548,246.435 29.708 C 246.274 29.869,246.031 30.000,245.895 30.000 C 245.759 30.000,245.686 30.064,245.734 30.142 C 245.783 30.219,245.618 30.387,245.369 30.514 C 245.120 30.641,244.760 30.906,244.568 31.103 C 244.376 31.300,244.064 31.510,243.875 31.570 C 243.686 31.630,243.489 31.789,243.437 31.923 C 243.386 32.057,243.237 32.167,243.106 32.167 C 242.976 32.167,242.826 32.279,242.773 32.417 C 242.720 32.554,242.562 32.667,242.422 32.667 C 242.202 32.667,242.167 33.084,242.167 35.667 L 242.167 38.667 254.125 38.667 L 266.083 38.667 266.051 35.792 L 266.019 32.917 259.019 32.917 C 255.169 32.917,252.165 32.863,252.343 32.797 C 252.521 32.731,252.667 32.594,252.667 32.491 C 252.667 32.389,252.760 32.338,252.875 32.377 C 252.990 32.417,253.249 32.273,253.450 32.058 C 253.652 31.843,253.879 31.667,253.955 31.667 C 254.031 31.667,254.221 31.517,254.378 31.333 C 254.535 31.150,254.764 31.000,254.887 31.000 C 255.010 31.000,255.209 30.815,255.330 30.589 C 255.451 30.363,255.618 30.220,255.700 30.271 C 255.783 30.322,256.022 30.178,256.233 29.951 C 256.443 29.725,256.776 29.488,256.974 29.425 C 257.172 29.362,257.333 29.239,257.333 29.151 C 257.333 29.064,257.521 28.920,257.750 28.833 C 257.979 28.746,258.167 28.599,258.167 28.507 C 258.167 28.415,258.345 28.295,258.562 28.240 C 258.779 28.186,259.055 27.959,259.173 27.737 C 259.292 27.515,259.490 27.333,259.613 27.333 C 259.736 27.333,259.962 27.187,260.115 27.009 C 260.268 26.830,260.447 26.717,260.513 26.758 C 260.579 26.799,260.809 26.646,261.025 26.419 C 261.240 26.192,261.510 26.004,261.625 26.003 C 261.740 26.001,261.833 25.933,261.833 25.851 C 261.833 25.769,262.190 25.471,262.625 25.189 C 263.060 24.907,263.619 24.506,263.867 24.297 C 264.700 23.594,265.067 23.333,265.223 23.333 C 265.925 23.333,266.083 22.650,266.083 19.620 L 266.083 16.667 256.958 16.667 L 247.833 16.667 247.833 11.500 L 247.833 6.333 256.958 6.333 L 266.083 6.333 266.083 3.333 L 266.083 0.333 254.125 0.333 L 242.167 0.333 242.167 11.500 M273.033 0.533 C 272.709 0.858,272.755 6.268,273.083 6.394 C 273.221 6.446,273.333 6.604,273.333 6.745 C 273.333 6.885,273.400 7.000,273.482 7.000 C 273.564 7.000,273.674 7.174,273.727 7.386 C 273.781 7.598,273.976 7.947,274.162 8.161 C 274.348 8.376,274.500 8.644,274.500 8.758 C 274.500 8.871,274.617 9.009,274.761 9.064 C 274.904 9.119,274.974 9.240,274.917 9.333 C 274.859 9.426,274.929 9.547,275.073 9.602 C 275.216 9.657,275.333 9.803,275.333 9.926 C 275.333 10.049,275.431 10.210,275.551 10.283 C 275.671 10.357,275.873 10.679,276.000 11.000 C 276.127 11.321,276.329 11.643,276.449 11.717 C 276.569 11.790,276.667 11.959,276.667 12.092 C 276.667 12.225,276.742 12.333,276.833 12.333 C 276.925 12.333,277.000 12.448,277.000 12.589 C 277.000 12.729,277.112 12.887,277.250 12.940 C 277.387 12.992,277.500 13.142,277.500 13.273 C 277.500 13.404,277.617 13.555,277.760 13.610 C 277.902 13.665,277.980 13.813,277.931 13.938 C 277.883 14.064,277.908 14.167,277.987 14.167 C 278.066 14.167,278.178 14.354,278.235 14.583 C 278.293 14.813,278.413 15.000,278.503 15.000 C 278.593 15.000,278.667 15.115,278.667 15.255 C 278.667 15.396,278.779 15.554,278.917 15.606 C 279.054 15.659,279.167 15.809,279.167 15.940 C 279.167 16.070,279.275 16.219,279.406 16.269 C 279.538 16.320,279.695 16.585,279.756 16.859 C 279.816 17.132,279.963 17.394,280.084 17.440 C 280.205 17.486,280.349 17.706,280.405 17.929 C 280.461 18.151,280.580 18.333,280.670 18.333 C 280.760 18.333,280.833 18.448,280.833 18.589 C 280.833 18.729,280.941 18.885,281.073 18.936 C 281.205 18.986,281.361 19.247,281.420 19.515 C 281.479 19.784,281.589 19.965,281.664 19.918 C 281.739 19.872,281.879 20.059,281.975 20.334 C 282.071 20.608,282.228 20.833,282.325 20.833 C 282.421 20.833,282.500 20.940,282.500 21.071 C 282.500 21.202,282.594 21.412,282.708 21.537 C 282.974 21.827,283.280 22.304,283.540 22.833 C 283.653 23.063,283.877 23.348,284.039 23.468 C 284.949 24.141,284.618 24.181,278.583 24.131 L 272.833 24.083 272.833 31.175 C 272.833 36.468,272.884 38.317,273.033 38.467 C 273.368 38.802,278.602 38.743,278.732 38.403 C 278.788 38.258,278.833 36.233,278.833 33.903 L 278.833 29.667 283.375 29.674 L 287.917 29.681 288.292 30.269 C 288.498 30.592,288.667 30.926,288.667 31.012 C 288.667 31.097,288.737 31.167,288.822 31.167 C 288.908 31.167,289.030 31.332,289.094 31.534 C 289.158 31.736,289.294 31.996,289.397 32.111 C 289.882 32.659,290.000 32.832,290.000 32.998 C 290.000 33.097,290.108 33.218,290.239 33.269 C 290.371 33.320,290.442 33.458,290.397 33.576 C 290.351 33.694,290.431 33.835,290.574 33.890 C 290.717 33.945,290.833 34.104,290.833 34.245 C 290.833 34.385,290.900 34.500,290.982 34.500 C 291.064 34.500,291.178 34.688,291.235 34.917 C 291.293 35.146,291.413 35.333,291.503 35.333 C 291.593 35.333,291.667 35.448,291.667 35.589 C 291.667 35.729,291.774 35.885,291.906 35.936 C 292.038 35.986,292.109 36.124,292.063 36.242 C 292.018 36.360,292.098 36.502,292.240 36.557 C 292.383 36.611,292.500 36.771,292.500 36.911 C 292.500 37.052,292.575 37.167,292.667 37.167 C 292.758 37.167,292.833 37.268,292.833 37.391 C 292.833 37.515,292.983 37.789,293.167 38.000 C 293.350 38.211,293.500 38.448,293.500 38.526 C 293.500 38.603,295.075 38.667,297.000 38.667 C 300.000 38.667,300.500 38.631,300.500 38.417 C 300.500 38.279,300.425 38.167,300.333 38.167 C 300.242 38.167,300.167 38.052,300.167 37.911 C 300.167 37.771,300.050 37.611,299.907 37.557 C 299.764 37.502,299.685 37.359,299.731 37.239 C 299.777 37.120,299.763 36.998,299.699 36.969 C 299.553 36.903,298.624 35.515,298.464 35.125 C 298.398 34.965,298.273 34.833,298.185 34.833 C 298.098 34.833,297.976 34.603,297.914 34.322 C 297.852 34.041,297.696 33.770,297.568 33.721 C 297.439 33.671,297.333 33.524,297.333 33.394 C 297.333 33.263,297.221 33.113,297.083 33.060 C 296.946 33.008,296.833 32.865,296.833 32.744 C 296.833 32.623,296.735 32.425,296.616 32.304 C 296.362 32.047,296.100 31.478,296.144 31.279 C 296.161 31.204,296.100 31.188,296.009 31.244 C 295.918 31.301,295.795 31.155,295.736 30.921 C 295.678 30.687,295.544 30.440,295.440 30.373 C 295.222 30.232,294.906 29.753,294.670 29.208 C 294.581 29.002,294.431 28.833,294.337 28.833 C 294.244 28.833,294.167 28.726,294.167 28.595 C 294.167 28.464,294.056 28.247,293.922 28.112 C 293.706 27.896,293.726 27.855,294.088 27.764 C 294.315 27.707,294.500 27.587,294.500 27.497 C 294.500 27.407,294.580 27.333,294.678 27.333 C 295.075 27.333,298.333 24.384,298.333 24.024 C 298.333 23.901,298.531 23.630,299.172 22.873 C 299.270 22.757,299.305 22.588,299.249 22.498 C 299.193 22.407,299.226 22.333,299.323 22.333 C 299.421 22.333,299.500 22.216,299.500 22.073 C 299.500 21.931,299.575 21.860,299.667 21.917 C 299.758 21.973,299.843 21.940,299.854 21.843 C 299.866 21.746,299.889 21.610,299.905 21.542 C 299.922 21.473,299.993 21.173,300.064 20.875 C 300.135 20.577,300.258 20.333,300.336 20.333 C 300.415 20.333,300.530 19.996,300.592 19.583 C 300.654 19.171,300.780 18.833,300.872 18.833 C 300.964 18.833,301.003 18.644,300.958 18.413 C 300.914 18.181,300.943 17.952,301.022 17.903 C 301.240 17.769,301.205 12.377,300.986 12.242 C 300.887 12.180,300.851 11.951,300.906 11.732 C 300.961 11.513,300.938 11.333,300.855 11.333 C 300.772 11.333,300.654 10.996,300.592 10.583 C 300.530 10.171,300.421 9.833,300.350 9.833 C 300.278 9.833,300.129 9.427,300.018 8.931 C 299.907 8.435,299.707 7.987,299.575 7.936 C 299.442 7.885,299.333 7.729,299.333 7.589 C 299.333 7.448,299.258 7.333,299.167 7.333 C 299.075 7.333,299.000 7.252,299.000 7.153 C 299.000 6.902,297.922 5.581,296.893 4.571 C 296.112 3.804,295.608 3.394,294.859 2.917 C 294.604 2.754,294.405 2.603,293.959 2.235 C 293.838 2.136,293.526 2.001,293.266 1.936 C 293.006 1.870,292.684 1.708,292.551 1.575 C 292.418 1.442,292.127 1.333,291.905 1.333 C 291.682 1.333,291.500 1.250,291.500 1.149 C 291.500 1.047,291.379 1.011,291.229 1.068 C 291.080 1.126,290.863 1.094,290.748 0.998 C 290.633 0.903,290.042 0.778,289.436 0.721 C 288.829 0.665,288.333 0.554,288.333 0.476 C 288.333 0.239,273.271 0.296,273.033 0.533 M317.667 0.462 C 317.667 0.533,317.090 0.683,316.385 0.795 C 315.680 0.908,315.061 1.069,315.008 1.153 C 314.956 1.238,314.708 1.358,314.457 1.422 C 314.205 1.485,314.000 1.595,314.000 1.667 C 314.000 1.738,313.803 1.847,313.563 1.907 C 313.323 1.967,313.031 2.107,312.915 2.217 C 312.799 2.327,312.495 2.567,312.240 2.750 C 311.526 3.263,310.167 4.687,310.167 4.921 C 310.167 5.037,310.054 5.174,309.917 5.227 C 309.779 5.280,309.667 5.438,309.667 5.578 C 309.667 5.718,309.609 5.833,309.538 5.833 C 309.348 5.833,308.851 6.834,308.730 7.458 C 308.672 7.756,308.554 8.000,308.468 8.000 C 308.382 8.000,308.361 8.159,308.423 8.354 C 308.487 8.555,308.455 8.758,308.350 8.823 C 308.234 8.895,308.123 9.912,308.057 11.526 L 307.950 14.115 308.622 14.807 C 308.992 15.188,309.361 15.500,309.443 15.500 C 309.699 15.500,310.654 16.457,310.532 16.592 C 310.469 16.662,310.498 16.674,310.596 16.618 C 310.695 16.562,311.019 16.737,311.315 17.008 C 311.611 17.279,311.949 17.500,312.065 17.500 C 312.182 17.500,312.368 17.669,312.478 17.876 C 312.589 18.083,312.958 18.439,313.298 18.667 C 313.638 18.895,314.015 19.214,314.134 19.374 C 314.254 19.535,314.433 19.667,314.532 19.667 C 314.631 19.667,314.870 19.837,315.064 20.045 C 315.258 20.253,315.717 20.646,316.083 20.919 C 316.450 21.192,316.810 21.509,316.883 21.624 C 316.957 21.739,317.094 21.833,317.189 21.833 C 317.284 21.833,317.616 22.096,317.928 22.417 C 318.239 22.737,318.552 23.000,318.622 23.000 C 318.693 23.000,319.102 23.319,319.531 23.708 C 320.770 24.832,321.185 25.167,321.342 25.167 C 321.423 25.167,321.741 25.410,322.048 25.708 C 322.988 26.618,323.897 27.333,324.112 27.333 C 324.664 27.333,324.633 29.224,324.071 29.786 C 323.940 29.917,323.833 30.131,323.833 30.262 C 323.833 30.393,323.763 30.500,323.678 30.500 C 323.592 30.500,323.475 30.651,323.416 30.836 C 323.357 31.020,323.240 31.128,323.155 31.076 C 323.070 31.023,323.000 31.104,323.000 31.256 C 323.000 31.407,322.855 31.569,322.678 31.615 C 322.501 31.662,322.316 31.805,322.267 31.933 C 322.217 32.062,322.062 32.167,321.922 32.167 C 321.782 32.167,321.667 32.236,321.667 32.320 C 321.667 32.404,321.442 32.523,321.167 32.583 C 320.892 32.644,320.667 32.743,320.667 32.805 C 320.667 32.866,320.029 32.917,319.250 32.917 C 318.471 32.917,317.833 32.860,317.833 32.792 C 317.833 32.723,317.689 32.667,317.512 32.667 C 317.335 32.667,317.078 32.554,316.940 32.417 C 316.803 32.279,316.618 32.167,316.529 32.167 C 316.364 32.167,315.627 31.468,314.779 30.508 C 314.520 30.215,314.267 29.718,314.216 29.404 C 314.165 29.090,314.058 28.833,313.978 28.833 C 313.899 28.833,313.833 28.571,313.833 28.250 L 313.833 27.667 310.926 27.667 L 308.019 27.667 308.118 28.875 C 308.172 29.540,308.289 30.130,308.376 30.188 C 308.464 30.245,308.485 30.451,308.423 30.646 C 308.361 30.841,308.381 31.000,308.467 31.000 C 308.554 31.000,308.672 31.300,308.731 31.667 C 308.789 32.033,308.905 32.333,308.989 32.333 C 309.072 32.333,309.190 32.558,309.250 32.833 C 309.310 33.108,309.424 33.333,309.502 33.333 C 309.580 33.333,309.698 33.502,309.763 33.708 C 309.828 33.914,310.002 34.170,310.149 34.278 C 310.296 34.385,310.417 34.543,310.417 34.629 C 310.417 34.837,312.035 36.414,312.388 36.549 C 312.541 36.608,312.667 36.734,312.667 36.828 C 312.667 36.923,312.774 37.000,312.905 37.000 C 313.036 37.000,313.260 37.117,313.403 37.261 C 313.547 37.404,313.740 37.475,313.832 37.417 C 313.924 37.360,314.000 37.393,314.000 37.490 C 314.000 37.587,314.112 37.667,314.250 37.667 C 314.387 37.667,314.500 37.739,314.500 37.828 C 314.500 37.917,314.612 37.946,314.750 37.894 C 314.887 37.841,315.000 37.876,315.000 37.972 C 315.000 38.068,315.337 38.197,315.750 38.259 C 316.162 38.321,316.500 38.438,316.500 38.519 C 316.500 38.600,317.737 38.667,319.250 38.667 C 320.762 38.667,322.000 38.600,322.000 38.519 C 322.000 38.438,322.337 38.321,322.750 38.259 C 323.162 38.197,323.500 38.083,323.500 38.005 C 323.500 37.928,323.662 37.907,323.859 37.959 C 324.092 38.019,324.180 37.989,324.108 37.873 C 324.042 37.767,324.201 37.649,324.499 37.584 C 324.774 37.523,325.000 37.404,325.000 37.320 C 325.000 37.236,325.110 37.167,325.244 37.167 C 325.378 37.167,325.569 37.017,325.667 36.833 C 325.765 36.650,325.917 36.500,326.004 36.500 C 326.303 36.500,328.236 34.680,328.091 34.535 C 328.052 34.497,328.198 34.300,328.415 34.099 C 328.633 33.898,328.861 33.531,328.923 33.283 C 328.985 33.036,329.097 32.833,329.171 32.833 C 329.246 32.833,329.356 32.608,329.417 32.333 C 329.477 32.058,329.604 31.833,329.699 31.833 C 329.794 31.833,329.833 31.683,329.785 31.500 C 329.737 31.317,329.757 31.167,329.830 31.167 C 330.008 31.167,330.176 30.249,330.162 29.360 C 330.154 28.894,330.212 28.675,330.325 28.745 C 330.443 28.818,330.500 28.250,330.500 26.990 L 330.500 25.127 329.853 24.480 C 329.497 24.125,329.118 23.833,329.010 23.833 C 328.902 23.833,328.860 23.758,328.917 23.667 C 328.973 23.575,328.916 23.500,328.789 23.500 C 328.662 23.500,328.382 23.313,328.167 23.083 C 327.951 22.854,327.716 22.667,327.643 22.667 C 327.571 22.667,327.259 22.423,326.952 22.125 C 326.111 21.312,325.111 20.500,324.949 20.500 C 324.870 20.500,324.572 20.238,324.288 19.917 C 324.004 19.596,323.705 19.333,323.623 19.333 C 323.541 19.333,323.249 19.108,322.974 18.833 C 322.699 18.558,322.363 18.333,322.227 18.333 C 322.091 18.333,322.027 18.258,322.083 18.167 C 322.140 18.075,322.115 18.000,322.027 18.000 C 321.940 18.000,321.692 17.814,321.476 17.586 C 321.260 17.359,321.017 17.171,320.936 17.170 C 320.855 17.168,320.603 16.967,320.376 16.722 C 320.149 16.477,319.691 16.093,319.357 15.868 C 319.023 15.643,318.690 15.356,318.617 15.230 C 318.543 15.103,318.415 15.000,318.331 15.000 C 318.247 15.000,317.915 14.737,317.594 14.417 C 317.274 14.096,316.915 13.830,316.797 13.826 C 316.680 13.822,316.399 13.597,316.174 13.326 C 315.950 13.055,315.707 12.833,315.636 12.833 C 315.564 12.833,315.236 12.571,314.905 12.250 C 314.575 11.929,314.199 11.667,314.069 11.667 C 313.911 11.667,313.833 11.475,313.833 11.083 C 313.833 10.762,313.899 10.500,313.979 10.500 C 314.059 10.500,314.172 10.200,314.231 9.833 C 314.289 9.467,314.411 9.167,314.502 9.167 C 314.593 9.167,314.667 9.082,314.667 8.978 C 314.667 8.766,316.454 7.000,316.670 7.000 C 316.747 7.000,316.938 6.872,317.094 6.715 C 317.861 5.948,321.629 6.373,322.217 7.292 C 322.290 7.406,322.454 7.500,322.580 7.500 C 322.707 7.500,322.859 7.651,322.917 7.836 C 322.976 8.020,323.094 8.128,323.179 8.076 C 323.264 8.023,323.333 8.100,323.333 8.245 C 323.333 8.391,323.439 8.551,323.568 8.601 C 323.698 8.650,323.849 8.873,323.905 9.095 C 323.961 9.318,324.073 9.500,324.154 9.500 C 324.236 9.500,324.352 9.860,324.412 10.300 C 324.580 11.517,324.460 11.472,327.628 11.530 L 330.500 11.583 330.500 11.042 C 330.500 10.744,330.419 10.500,330.321 10.500 C 330.216 10.500,330.160 10.237,330.187 9.870 C 330.212 9.524,330.189 9.168,330.135 9.079 C 330.082 8.990,329.986 8.598,329.921 8.208 C 329.857 7.819,329.744 7.500,329.671 7.500 C 329.597 7.500,329.488 7.237,329.428 6.917 C 329.367 6.596,329.253 6.333,329.172 6.333 C 329.092 6.333,328.979 6.119,328.922 5.857 C 328.864 5.595,328.634 5.283,328.409 5.162 C 328.184 5.042,328.000 4.840,328.000 4.714 C 328.000 4.384,326.403 2.833,326.063 2.833 C 325.906 2.833,325.822 2.790,325.875 2.736 C 326.029 2.582,325.384 2.019,324.921 1.903 C 324.689 1.845,324.500 1.740,324.500 1.670 C 324.500 1.600,324.144 1.445,323.708 1.326 C 323.273 1.206,322.875 1.047,322.824 0.971 C 322.773 0.896,322.267 0.786,321.699 0.727 C 321.131 0.668,320.667 0.555,320.667 0.476 C 320.667 0.398,319.992 0.333,319.167 0.333 C 318.342 0.333,317.667 0.391,317.667 0.462 M337.750 11.505 L 337.750 22.677 344.863 22.630 C 349.228 22.601,351.869 22.642,351.697 22.736 C 351.543 22.820,351.379 22.932,351.333 22.986 C 351.287 23.040,351.046 23.189,350.797 23.317 C 350.548 23.445,350.384 23.614,350.432 23.692 C 350.480 23.770,350.414 23.833,350.285 23.833 C 350.156 23.833,349.871 23.982,349.651 24.164 C 349.430 24.345,349.170 24.560,349.073 24.641 C 348.975 24.722,348.713 24.884,348.490 25.002 C 348.266 25.119,348.023 25.317,347.950 25.441 C 347.877 25.565,347.735 25.667,347.636 25.667 C 347.536 25.667,347.281 25.854,347.069 26.083 C 346.856 26.313,346.602 26.500,346.503 26.500 C 346.404 26.500,346.281 26.610,346.229 26.744 C 346.178 26.878,345.974 27.037,345.776 27.098 C 345.578 27.159,345.304 27.314,345.167 27.443 C 344.633 27.942,344.109 28.333,343.974 28.333 C 343.831 28.333,343.659 28.468,342.717 29.322 C 342.424 29.588,342.037 29.852,341.857 29.909 C 341.678 29.966,341.489 30.122,341.437 30.256 C 341.386 30.390,341.263 30.500,341.165 30.500 C 340.941 30.500,339.962 31.179,339.783 31.458 C 339.710 31.573,339.569 31.667,339.469 31.667 C 339.370 31.667,339.129 31.835,338.934 32.042 C 338.740 32.248,338.394 32.513,338.165 32.631 L 337.750 32.845 337.750 35.756 L 337.750 38.667 349.637 38.667 C 359.717 38.667,361.560 38.630,361.762 38.429 C 362.111 38.079,362.107 33.416,361.757 33.066 C 361.549 32.859,360.482 32.830,354.586 32.870 C 349.996 32.901,347.786 32.862,348.037 32.755 C 348.246 32.666,348.477 32.497,348.550 32.380 C 348.623 32.263,348.793 32.167,348.927 32.167 C 349.060 32.167,349.298 32.017,349.455 31.833 C 349.612 31.650,349.841 31.500,349.964 31.500 C 350.086 31.500,350.143 31.430,350.091 31.345 C 350.038 31.260,350.146 31.143,350.331 31.084 C 350.516 31.025,350.667 30.908,350.667 30.822 C 350.667 30.737,350.765 30.667,350.885 30.667 C 351.005 30.667,351.265 30.517,351.462 30.333 C 351.658 30.150,351.895 30.000,351.987 30.000 C 352.079 30.000,352.235 29.850,352.333 29.667 C 352.431 29.483,352.622 29.333,352.756 29.333 C 352.890 29.333,353.000 29.271,353.000 29.195 C 353.000 29.119,353.206 28.951,353.458 28.822 C 353.710 28.693,354.082 28.418,354.284 28.211 C 354.486 28.003,354.713 27.833,354.788 27.833 C 354.864 27.833,355.054 27.683,355.211 27.500 C 355.368 27.317,355.592 27.167,355.708 27.167 C 355.825 27.167,356.013 27.017,356.128 26.833 C 356.242 26.650,356.421 26.500,356.524 26.500 C 356.627 26.500,356.877 26.321,357.080 26.103 C 357.282 25.884,357.603 25.657,357.792 25.596 C 357.981 25.536,358.178 25.378,358.229 25.244 C 358.281 25.110,358.413 25.000,358.522 25.000 C 358.723 25.000,358.815 24.930,359.766 24.053 C 360.050 23.791,360.481 23.486,360.724 23.375 C 360.968 23.264,361.167 23.105,361.167 23.022 C 361.167 22.938,361.354 22.822,361.583 22.765 L 362.000 22.660 362.000 19.863 C 362.000 17.910,361.940 17.006,361.800 16.867 C 361.649 16.716,359.385 16.667,352.633 16.667 L 343.667 16.667 343.667 11.500 L 343.667 6.333 352.570 6.333 C 357.466 6.333,361.591 6.288,361.736 6.232 C 362.108 6.089,362.132 0.941,361.762 0.571 C 361.560 0.370,359.717 0.333,349.637 0.333 L 337.750 0.333 337.750 11.505 M368.667 19.500 L 368.667 38.667 376.500 38.667 C 380.931 38.667,384.333 38.603,384.333 38.519 C 384.333 38.438,384.745 38.320,385.247 38.258 C 385.750 38.195,386.208 38.068,386.264 37.977 C 386.321 37.885,386.470 37.850,386.595 37.898 C 386.720 37.946,386.862 37.922,386.909 37.845 C 386.957 37.768,387.268 37.653,387.600 37.591 C 387.933 37.529,388.354 37.338,388.537 37.168 C 388.720 36.997,388.974 36.898,389.102 36.947 C 389.229 36.996,389.333 36.959,389.333 36.864 C 389.333 36.770,389.558 36.644,389.833 36.583 C 390.108 36.523,390.333 36.405,390.333 36.322 C 390.333 36.239,390.577 36.066,390.875 35.938 C 391.173 35.811,391.582 35.547,391.785 35.353 C 391.987 35.159,392.203 35.000,392.265 35.000 C 392.327 35.000,392.616 34.747,392.908 34.438 C 393.199 34.129,393.586 33.829,393.766 33.771 C 393.947 33.714,394.217 33.460,394.366 33.207 C 394.515 32.955,394.907 32.471,395.236 32.132 C 395.564 31.794,395.833 31.442,395.833 31.350 C 395.833 31.258,395.927 31.123,396.042 31.050 C 396.369 30.841,396.974 29.911,397.094 29.433 C 397.154 29.195,397.264 29.000,397.338 29.000 C 397.413 29.000,397.523 28.775,397.583 28.500 C 397.644 28.225,397.756 28.000,397.833 28.000 C 397.910 28.000,398.023 27.775,398.083 27.500 C 398.144 27.225,398.256 27.000,398.332 27.000 C 398.408 27.000,398.521 26.700,398.583 26.333 C 398.645 25.966,398.754 25.701,398.824 25.744 C 398.894 25.788,398.916 25.638,398.873 25.412 C 398.830 25.185,398.872 25.000,398.967 25.000 C 399.062 25.000,399.192 24.513,399.256 23.919 C 399.320 23.324,399.435 22.876,399.511 22.924 C 399.655 23.012,399.700 22.199,399.697 19.583 C 399.694 17.105,399.642 16.167,399.505 16.167 C 399.434 16.167,399.325 15.717,399.263 15.167 C 399.201 14.617,399.077 14.167,398.989 14.167 C 398.899 14.167,398.874 13.980,398.932 13.750 C 398.996 13.493,398.965 13.333,398.851 13.333 C 398.750 13.333,398.667 13.183,398.667 13.000 C 398.667 12.817,398.594 12.667,398.505 12.667 C 398.416 12.667,398.387 12.554,398.440 12.417 C 398.492 12.279,398.453 12.167,398.351 12.167 C 398.250 12.167,398.167 12.007,398.167 11.811 C 398.167 11.480,397.584 10.356,397.314 10.165 C 397.247 10.118,397.140 9.868,397.075 9.610 C 397.010 9.351,396.854 9.100,396.729 9.052 C 396.603 9.004,396.500 8.858,396.500 8.727 C 396.500 8.596,396.390 8.447,396.256 8.396 C 396.122 8.345,395.965 8.154,395.908 7.972 C 395.796 7.620,393.201 4.976,392.418 4.417 C 392.162 4.233,391.834 3.952,391.689 3.792 C 391.544 3.631,391.330 3.500,391.213 3.500 C 391.096 3.500,391.000 3.439,391.000 3.364 C 391.000 3.290,390.738 3.126,390.417 3.000 C 390.096 2.874,389.833 2.716,389.833 2.649 C 389.833 2.582,389.608 2.477,389.333 2.417 C 389.058 2.356,388.833 2.238,388.833 2.153 C 388.833 2.069,388.689 2.000,388.512 2.000 C 388.335 2.000,388.073 1.882,387.929 1.739 C 387.770 1.580,387.537 1.519,387.334 1.583 C 387.142 1.644,387.000 1.613,387.000 1.511 C 387.000 1.413,386.854 1.333,386.677 1.333 C 386.499 1.333,386.313 1.268,386.264 1.189 C 386.215 1.110,385.985 1.081,385.754 1.125 C 385.509 1.172,385.333 1.128,385.333 1.021 C 385.333 0.920,385.165 0.837,384.958 0.836 C 383.970 0.833,382.333 0.612,382.333 0.481 C 382.333 0.398,379.344 0.333,375.500 0.333 L 368.667 0.333 368.667 19.500 M241.912 11.583 C 241.912 17.542,241.933 19.955,241.958 16.946 C 241.984 13.937,241.984 9.062,241.958 6.113 C 241.933 3.163,241.912 5.625,241.912 11.583 M288.610 6.429 C 289.008 6.489,289.333 6.604,289.333 6.686 C 289.333 6.767,289.478 6.833,289.655 6.833 C 289.832 6.833,290.085 6.942,290.218 7.075 C 290.351 7.208,290.656 7.366,290.895 7.426 C 291.135 7.486,291.299 7.587,291.261 7.649 C 291.222 7.712,291.394 7.853,291.643 7.963 C 292.221 8.219,293.500 9.442,293.500 9.738 C 293.500 9.863,293.612 10.008,293.750 10.060 C 293.887 10.113,294.000 10.267,294.000 10.403 C 294.000 10.539,294.110 10.712,294.245 10.787 C 294.380 10.863,294.518 11.106,294.552 11.329 C 294.586 11.551,294.701 11.761,294.807 11.797 C 294.913 11.832,295.000 12.038,295.000 12.254 C 295.000 12.470,295.073 12.692,295.161 12.747 C 295.250 12.801,295.278 13.068,295.224 13.340 C 295.161 13.653,295.194 13.833,295.313 13.833 C 295.435 13.833,295.500 14.269,295.500 15.083 C 295.500 15.771,295.435 16.333,295.355 16.333 C 295.275 16.333,295.159 16.783,295.097 17.333 C 295.034 17.883,294.918 18.333,294.838 18.333 C 294.758 18.333,294.644 18.558,294.583 18.833 C 294.523 19.108,294.403 19.333,294.316 19.333 C 294.229 19.333,294.087 19.521,294.000 19.750 C 293.913 19.979,293.765 20.167,293.671 20.167 C 293.577 20.167,293.500 20.271,293.500 20.398 C 293.500 20.701,292.107 22.110,291.671 22.248 C 291.486 22.307,291.333 22.417,291.333 22.492 C 291.333 22.708,290.740 22.804,290.440 22.637 C 290.290 22.552,290.167 22.345,290.167 22.176 C 290.167 22.007,290.061 21.829,289.932 21.779 C 289.804 21.730,289.647 21.458,289.585 21.176 C 289.524 20.894,289.406 20.705,289.325 20.755 C 289.243 20.806,289.130 20.662,289.073 20.436 C 289.016 20.209,288.864 19.984,288.735 19.934 C 288.606 19.884,288.500 19.729,288.500 19.589 C 288.500 19.448,288.436 19.333,288.359 19.333 C 288.281 19.333,288.096 19.052,287.948 18.708 C 287.611 17.927,287.311 17.456,287.042 17.283 C 286.927 17.210,286.833 17.041,286.833 16.908 C 286.833 16.775,286.763 16.667,286.678 16.667 C 286.592 16.667,286.471 16.504,286.408 16.304 C 286.344 16.105,286.226 15.862,286.144 15.763 C 285.822 15.374,285.167 14.311,285.167 14.177 C 285.167 14.099,285.054 13.992,284.917 13.940 C 284.779 13.887,284.667 13.729,284.667 13.589 C 284.667 13.448,284.592 13.333,284.500 13.333 C 284.408 13.333,284.333 13.232,284.333 13.109 C 284.333 12.912,284.194 12.705,283.513 11.893 C 283.425 11.788,283.404 11.651,283.467 11.589 C 283.529 11.526,283.448 11.401,283.287 11.311 C 283.125 11.220,283.037 11.075,283.090 10.989 C 283.144 10.902,283.071 10.786,282.927 10.731 C 282.784 10.676,282.667 10.524,282.667 10.394 C 282.667 10.263,282.554 10.113,282.417 10.060 C 282.279 10.008,282.167 9.865,282.167 9.744 C 282.167 9.623,282.068 9.425,281.948 9.304 C 281.828 9.182,281.622 8.840,281.491 8.542 C 281.359 8.244,281.195 8.000,281.126 8.000 C 281.057 8.000,281.000 7.885,281.000 7.745 C 281.000 7.604,280.887 7.446,280.750 7.394 C 280.612 7.341,280.500 7.191,280.500 7.060 C 280.500 6.930,280.387 6.780,280.250 6.727 C 280.112 6.674,280.000 6.545,280.000 6.441 C 280.000 6.233,287.240 6.224,288.610 6.429 M382.996 6.443 C 383.548 6.500,384.000 6.612,384.000 6.690 C 384.000 6.769,384.182 6.833,384.405 6.833 C 384.627 6.833,384.927 6.951,385.071 7.095 C 385.268 7.292,385.334 7.302,385.336 7.137 C 385.338 6.961,385.368 6.963,385.484 7.146 C 385.564 7.273,385.701 7.332,385.789 7.277 C 385.877 7.223,386.094 7.307,386.271 7.464 C 386.448 7.621,386.955 7.938,387.398 8.167 C 387.841 8.396,388.240 8.677,388.286 8.792 C 388.332 8.906,388.470 9.000,388.593 9.000 C 388.716 9.000,388.877 9.099,388.950 9.221 C 389.023 9.342,389.215 9.490,389.375 9.549 C 389.677 9.660,389.782 10.000,389.514 10.000 C 389.430 10.000,386.015 13.337,381.925 17.417 C 377.835 21.496,374.454 24.833,374.411 24.833 C 374.368 24.833,374.333 20.672,374.333 15.587 L 374.333 6.340 377.792 6.289 C 379.694 6.261,381.417 6.260,381.621 6.288 C 381.825 6.315,382.443 6.385,382.996 6.443 M96.965 6.604 C 97.030 6.707,97.327 6.844,97.625 6.909 C 97.923 6.974,98.167 7.096,98.167 7.180 C 98.167 7.264,98.282 7.333,98.422 7.333 C 98.562 7.333,98.720 7.446,98.773 7.583 C 98.826 7.721,98.970 7.833,99.093 7.833 C 99.216 7.833,99.393 7.965,99.487 8.125 C 99.580 8.285,99.659 8.353,99.662 8.275 C 99.664 8.196,99.873 8.371,100.125 8.663 C 100.377 8.955,100.808 9.447,101.083 9.757 C 101.883 10.659,101.953 10.756,102.074 11.138 C 102.137 11.337,102.264 11.500,102.356 11.500 C 102.450 11.500,102.474 11.654,102.410 11.854 C 102.334 12.093,102.358 12.171,102.482 12.094 C 102.598 12.023,102.667 12.135,102.667 12.397 C 102.667 12.626,102.742 12.860,102.834 12.917 C 102.928 12.975,102.957 13.295,102.899 13.656 C 102.836 14.047,102.868 14.335,102.982 14.406 C 103.226 14.557,103.223 15.833,102.979 15.833 C 102.853 15.833,102.826 16.052,102.896 16.490 C 102.956 16.868,102.930 17.190,102.834 17.250 C 102.742 17.307,102.667 17.499,102.667 17.677 C 102.667 17.854,102.587 18.000,102.489 18.000 C 102.387 18.000,102.356 18.142,102.417 18.333 C 102.477 18.522,102.447 18.667,102.348 18.667 C 102.252 18.667,102.126 18.854,102.068 19.083 C 102.011 19.313,101.897 19.500,101.815 19.500 C 101.734 19.500,101.667 19.615,101.667 19.755 C 101.667 19.896,101.557 20.053,101.423 20.104 C 101.289 20.155,101.130 20.353,101.070 20.543 C 100.961 20.886,100.034 21.833,99.808 21.833 C 99.743 21.833,99.412 22.096,99.072 22.417 C 98.374 23.075,98.000 23.160,98.000 22.661 C 98.000 22.475,97.881 22.277,97.736 22.222 C 97.528 22.142,97.518 22.092,97.690 21.986 C 97.859 21.881,97.843 21.827,97.620 21.741 C 97.462 21.681,97.333 21.524,97.333 21.394 C 97.333 21.263,97.221 21.113,97.083 21.060 C 96.946 21.008,96.833 20.858,96.833 20.727 C 96.833 20.596,96.721 20.446,96.583 20.394 C 96.446 20.341,96.333 20.159,96.333 19.990 C 96.333 19.821,96.235 19.623,96.115 19.550 C 95.995 19.477,95.799 19.173,95.678 18.875 C 95.558 18.577,95.394 18.333,95.313 18.333 C 95.233 18.333,95.167 18.218,95.167 18.078 C 95.167 17.938,95.054 17.780,94.917 17.727 C 94.779 17.674,94.667 17.532,94.667 17.411 C 94.667 17.290,94.572 17.091,94.456 16.970 C 94.341 16.849,94.150 16.563,94.032 16.333 C 93.495 15.290,93.304 15.000,93.158 15.000 C 93.071 15.000,93.000 14.899,93.000 14.776 C 93.000 14.652,92.850 14.378,92.667 14.167 C 92.483 13.955,92.333 13.681,92.333 13.558 C 92.333 13.434,92.266 13.333,92.183 13.333 C 92.100 13.333,91.954 13.108,91.858 12.833 C 91.762 12.558,91.613 12.333,91.527 12.333 C 91.440 12.333,91.322 12.143,91.263 11.910 C 91.205 11.677,91.092 11.526,91.013 11.575 C 90.934 11.624,90.820 11.471,90.761 11.235 C 90.660 10.833,90.554 10.663,90.054 10.102 C 89.946 9.981,89.742 9.627,89.599 9.316 C 89.253 8.559,88.961 8.112,88.708 7.950 C 88.594 7.877,88.500 7.716,88.500 7.593 C 88.500 7.470,88.397 7.330,88.272 7.282 C 88.147 7.233,88.006 6.994,87.959 6.750 L 87.874 6.306 92.360 6.361 C 95.444 6.399,96.883 6.475,96.965 6.604 M10.036 12.519 C 11.773 14.250,13.263 15.667,13.347 15.667 C 13.615 15.667,13.511 16.006,13.208 16.120 C 12.866 16.249,6.576 22.530,6.459 22.859 C 6.271 23.386,6.252 22.553,6.295 15.760 C 6.337 9.119,6.360 8.630,6.609 8.987 C 6.757 9.198,8.299 10.787,10.036 12.519 M28.990 15.958 C 28.983 21.664,28.937 23.183,28.782 22.941 C 28.598 22.655,24.253 18.253,23.558 17.649 C 23.389 17.501,23.063 17.161,22.833 16.892 C 22.604 16.624,22.231 16.276,22.005 16.119 C 21.778 15.962,21.677 15.833,21.779 15.833 C 21.882 15.833,22.255 15.528,22.608 15.154 C 22.961 14.781,23.389 14.350,23.560 14.196 C 23.977 13.820,25.184 12.610,25.526 12.226 C 25.677 12.056,26.052 11.683,26.359 11.397 C 26.666 11.111,27.037 10.736,27.183 10.564 C 27.329 10.391,27.683 10.063,27.968 9.833 C 28.253 9.604,28.489 9.338,28.493 9.242 C 28.499 9.082,28.830 8.667,28.950 8.667 C 28.977 8.667,28.996 11.948,28.990 15.958 M49.328 11.821 C 49.440 12.090,49.636 12.350,49.765 12.399 C 49.894 12.449,50.000 12.604,50.000 12.745 C 50.000 12.885,50.074 13.000,50.163 13.000 C 50.253 13.000,50.373 13.182,50.429 13.405 C 50.484 13.627,50.636 13.850,50.765 13.899 C 50.894 13.949,51.000 14.104,51.000 14.245 C 51.000 14.385,51.077 14.500,51.172 14.500 C 51.266 14.500,51.393 14.631,51.452 14.792 C 51.589 15.160,52.209 16.065,52.375 16.139 C 52.444 16.169,52.500 16.303,52.500 16.436 C 52.500 16.569,52.612 16.720,52.750 16.773 C 52.887 16.826,53.000 16.929,53.000 17.003 C 53.000 17.220,53.880 18.500,54.030 18.500 C 54.105 18.500,54.167 18.603,54.167 18.730 C 54.167 18.856,54.279 19.053,54.417 19.167 C 54.554 19.281,54.667 19.507,54.667 19.669 C 54.667 19.832,54.554 20.008,54.417 20.060 C 54.279 20.113,54.167 20.275,54.167 20.421 C 54.167 20.567,54.104 20.648,54.028 20.601 C 53.952 20.554,53.789 20.771,53.666 21.084 C 53.544 21.397,53.344 21.691,53.222 21.738 C 53.100 21.785,53.000 21.938,53.000 22.078 C 53.000 22.218,52.926 22.333,52.837 22.333 C 52.747 22.333,52.627 22.515,52.571 22.738 C 52.516 22.960,52.364 23.183,52.235 23.233 C 52.106 23.282,52.000 23.438,52.000 23.578 C 52.000 23.718,51.921 23.833,51.825 23.833 C 51.728 23.833,51.571 24.058,51.475 24.333 C 51.379 24.608,51.233 24.833,51.150 24.833 C 51.068 24.833,51.000 24.943,51.000 25.077 C 51.000 25.212,50.848 25.403,50.662 25.502 C 50.476 25.602,50.368 25.755,50.423 25.843 C 50.477 25.931,50.404 26.047,50.261 26.102 C 50.117 26.157,50.000 26.308,50.000 26.436 C 50.000 26.565,49.850 26.798,49.667 26.955 C 49.483 27.112,49.333 27.327,49.333 27.433 C 49.333 27.539,49.221 27.719,49.083 27.833 C 48.862 28.017,48.833 27.094,48.833 19.687 C 48.833 11.599,48.886 10.754,49.328 11.821 M393.167 15.167 C 393.167 15.339,393.232 15.520,393.311 15.570 C 393.390 15.619,393.417 15.859,393.370 16.104 C 393.316 16.388,393.348 16.511,393.458 16.442 C 393.564 16.377,393.670 16.614,393.730 17.043 C 393.899 18.268,393.956 21.674,393.808 21.766 C 393.730 21.814,393.667 22.111,393.667 22.427 C 393.667 22.742,393.583 23.000,393.481 23.000 C 393.372 23.000,393.328 23.173,393.374 23.417 C 393.418 23.646,393.396 23.833,393.325 23.833 C 393.254 23.833,393.145 24.133,393.083 24.500 C 393.021 24.867,392.904 25.167,392.822 25.167 C 392.740 25.167,392.626 25.354,392.568 25.583 C 392.511 25.813,392.397 26.000,392.315 26.000 C 392.234 26.000,392.167 26.115,392.167 26.255 C 392.167 26.396,392.054 26.554,391.917 26.606 C 391.779 26.659,391.667 26.803,391.667 26.926 C 391.667 27.049,391.536 27.223,391.376 27.313 C 391.217 27.402,391.139 27.528,391.203 27.592 C 391.267 27.656,390.704 28.317,389.951 29.060 C 388.598 30.397,388.271 30.659,387.542 30.989 C 387.335 31.082,387.167 31.229,387.167 31.316 C 387.167 31.403,386.942 31.523,386.667 31.583 C 386.392 31.644,386.167 31.754,386.167 31.828 C 386.167 31.902,385.904 32.012,385.583 32.072 C 385.262 32.133,385.000 32.246,385.000 32.325 C 385.000 32.404,384.606 32.522,384.125 32.587 C 383.644 32.652,383.176 32.749,383.085 32.804 C 382.994 32.858,381.082 32.906,378.835 32.910 L 374.750 32.917 383.485 24.208 C 388.290 19.419,392.271 15.500,392.332 15.500 C 392.394 15.500,392.543 15.315,392.664 15.089 C 392.906 14.636,393.167 14.677,393.167 15.167 M201.464 32.841 C 201.726 33.010,201.725 33.017,201.445 32.929 C 201.277 32.876,198.710 32.833,195.741 32.833 L 190.342 32.833 190.296 27.282 L 190.250 21.732 195.714 27.194 C 198.720 30.199,201.307 32.740,201.464 32.841 M241.901 35.583 C 241.901 37.050,241.927 37.628,241.957 36.867 C 241.988 36.106,241.988 34.906,241.957 34.200 C 241.926 33.494,241.901 34.117,241.901 35.583 " stroke="none" fill="#9c0404" fill-rule="evenodd"></path><path id="path1" d="M95.833 0.500 C 95.833 0.592,96.100 0.667,96.427 0.667 C 96.780 0.667,96.978 0.599,96.917 0.500 C 96.860 0.408,96.593 0.333,96.323 0.333 C 96.054 0.333,95.833 0.408,95.833 0.500 M288.333 0.500 C 288.333 0.592,288.563 0.667,288.843 0.667 C 289.141 0.667,289.310 0.597,289.250 0.500 C 289.116 0.283,288.333 0.283,288.333 0.500 M316.750 0.500 C 316.690 0.597,316.859 0.667,317.157 0.667 C 317.437 0.667,317.667 0.592,317.667 0.500 C 317.667 0.408,317.484 0.333,317.260 0.333 C 317.036 0.333,316.807 0.408,316.750 0.500 M320.667 0.500 C 320.667 0.592,320.892 0.667,321.167 0.667 C 321.442 0.667,321.667 0.592,321.667 0.500 C 321.667 0.408,321.442 0.333,321.167 0.333 C 320.892 0.333,320.667 0.408,320.667 0.500 M382.333 0.500 C 382.333 0.592,382.638 0.667,383.010 0.667 C 383.418 0.667,383.646 0.601,383.583 0.500 C 383.527 0.408,383.222 0.333,382.907 0.333 C 382.591 0.333,382.333 0.408,382.333 0.500 M28.073 1.042 L 27.583 1.583 28.125 1.094 C 28.423 0.825,28.667 0.581,28.667 0.552 C 28.667 0.423,28.529 0.537,28.073 1.042 M34.667 19.500 C 34.667 32.137,34.723 38.485,34.833 38.417 C 34.943 38.349,35.000 31.863,35.000 19.500 C 35.000 7.137,34.943 0.651,34.833 0.583 C 34.723 0.515,34.667 6.863,34.667 19.500 M42.667 19.500 C 42.667 32.137,42.723 38.485,42.833 38.417 C 42.943 38.349,43.000 31.863,43.000 19.500 C 43.000 7.137,42.943 0.651,42.833 0.583 C 42.723 0.515,42.667 6.863,42.667 19.500 M177.500 3.323 C 177.500 5.108,177.562 6.167,177.667 6.167 C 177.771 6.167,177.833 5.142,177.833 3.427 C 177.833 1.780,177.767 0.645,177.667 0.583 C 177.558 0.516,177.500 1.470,177.500 3.323 M184.111 0.611 C 183.924 0.799,183.979 38.300,184.167 38.417 C 184.277 38.485,184.333 32.141,184.333 19.510 C 184.333 9.054,184.308 0.500,184.278 0.500 C 184.247 0.500,184.172 0.550,184.111 0.611 M233.944 0.611 C 233.757 0.799,233.812 38.300,234.000 38.417 C 234.111 38.485,234.167 32.141,234.167 19.510 C 234.167 9.054,234.142 0.500,234.111 0.500 C 234.081 0.500,234.006 0.550,233.944 0.611 M241.968 0.625 C 241.940 0.694,241.955 5.662,242.002 11.667 L 242.087 22.583 242.127 11.542 C 242.149 5.469,242.134 0.500,242.093 0.500 C 242.053 0.500,241.996 0.556,241.968 0.625 M266.101 0.764 C 265.928 1.215,265.987 5.972,266.167 6.083 C 266.275 6.150,266.333 5.196,266.333 3.343 C 266.333 0.554,266.305 0.234,266.101 0.764 M337.500 11.407 C 337.500 18.580,337.557 22.333,337.667 22.333 C 337.776 22.333,337.833 18.614,337.833 11.510 C 337.833 4.474,337.775 0.650,337.667 0.583 C 337.556 0.515,337.500 4.165,337.500 11.407 M368.581 19.500 C 368.581 29.996,368.601 34.290,368.625 29.042 C 368.649 23.794,368.649 15.206,368.625 9.958 C 368.601 4.710,368.581 9.004,368.581 19.500 M80.333 3.427 C 80.333 5.224,80.391 6.150,80.500 6.083 C 80.600 6.022,80.667 4.915,80.667 3.323 C 80.667 1.663,80.604 0.667,80.500 0.667 C 80.396 0.667,80.333 1.698,80.333 3.427 M384.167 0.731 C 384.167 0.879,384.841 0.956,384.926 0.818 C 384.978 0.735,384.828 0.667,384.593 0.667 C 384.359 0.667,384.167 0.695,384.167 0.731 M98.333 1.000 C 98.333 1.092,98.446 1.167,98.583 1.167 C 98.721 1.167,98.833 1.092,98.833 1.000 C 98.833 0.908,98.721 0.833,98.583 0.833 C 98.446 0.833,98.333 0.908,98.333 1.000 M322.833 1.000 C 322.833 1.092,322.940 1.167,323.070 1.167 C 323.200 1.167,323.443 1.210,323.611 1.264 C 323.891 1.352,323.889 1.338,323.593 1.097 C 323.228 0.800,322.833 0.749,322.833 1.000 M385.333 1.000 C 385.333 1.092,385.483 1.167,385.667 1.167 C 385.850 1.167,386.000 1.092,386.000 1.000 C 386.000 0.908,385.850 0.833,385.667 0.833 C 385.483 0.833,385.333 0.908,385.333 1.000 M99.092 1.148 C 99.179 1.229,99.438 1.350,99.667 1.415 C 100.071 1.531,100.074 1.527,99.750 1.273 C 99.399 0.997,98.811 0.885,99.092 1.148 M314.417 1.278 C 314.124 1.512,314.120 1.532,314.389 1.439 C 314.557 1.381,314.763 1.333,314.847 1.333 C 314.931 1.333,315.000 1.258,315.000 1.167 C 315.000 0.931,314.803 0.968,314.417 1.278 M292.667 1.667 C 292.667 1.758,292.736 1.833,292.820 1.833 C 292.904 1.833,293.110 1.881,293.278 1.939 C 293.546 2.032,293.543 2.012,293.250 1.778 C 292.864 1.468,292.667 1.431,292.667 1.667 M50.449 2.990 C 50.499 3.179,50.605 3.333,50.686 3.333 C 50.911 3.333,50.862 3.064,50.596 2.844 C 50.402 2.683,50.376 2.709,50.449 2.990 M327.949 4.657 C 327.999 4.846,328.105 5.000,328.186 5.000 C 328.411 5.000,328.362 4.731,328.096 4.511 C 327.902 4.350,327.876 4.376,327.949 4.657 M159.278 6.278 C 159.091 6.464,159.146 16.667,159.333 16.667 C 159.441 16.667,159.500 14.806,159.500 11.417 C 159.500 8.529,159.475 6.167,159.444 6.167 C 159.414 6.167,159.339 6.217,159.278 6.278 M287.570 6.356 C 287.520 6.435,287.710 6.500,287.990 6.500 C 288.271 6.500,288.500 6.471,288.500 6.436 C 288.500 6.295,287.652 6.221,287.570 6.356 M381.000 6.336 C 380.825 6.447,381.047 6.496,381.736 6.497 C 382.278 6.499,382.691 6.473,382.653 6.440 C 382.463 6.275,381.218 6.197,381.000 6.336 M247.833 11.500 C 247.833 14.833,247.892 16.667,248.000 16.667 C 248.108 16.667,248.167 14.833,248.167 11.500 C 248.167 8.167,248.108 6.333,248.000 6.333 C 247.892 6.333,247.833 8.167,247.833 11.500 M374.333 15.583 C 374.333 21.639,374.391 24.833,374.500 24.833 C 374.609 24.833,374.667 21.639,374.667 15.583 C 374.667 9.528,374.609 6.333,374.500 6.333 C 374.391 6.333,374.333 9.528,374.333 15.583 M383.250 6.667 C 383.307 6.758,383.499 6.833,383.677 6.833 C 383.854 6.833,384.000 6.758,384.000 6.667 C 384.000 6.575,383.808 6.500,383.573 6.500 C 383.332 6.500,383.192 6.572,383.250 6.667 M97.636 7.085 C 97.848 7.240,98.067 7.322,98.122 7.267 C 98.255 7.134,98.165 7.065,97.667 6.922 L 97.250 6.802 97.636 7.085 M329.500 7.250 C 329.500 7.388,329.575 7.500,329.667 7.500 C 329.758 7.500,329.833 7.388,329.833 7.250 C 329.833 7.112,329.758 7.000,329.667 7.000 C 329.575 7.000,329.500 7.112,329.500 7.250 M308.333 7.750 C 308.333 7.888,308.408 8.000,308.500 8.000 C 308.592 8.000,308.667 7.888,308.667 7.750 C 308.667 7.612,308.592 7.500,308.500 7.500 C 308.408 7.500,308.333 7.612,308.333 7.750 M308.167 8.583 C 308.167 8.721,308.242 8.833,308.333 8.833 C 308.425 8.833,308.500 8.721,308.500 8.583 C 308.500 8.446,308.425 8.333,308.333 8.333 C 308.242 8.333,308.167 8.446,308.167 8.583 M107.333 8.667 C 107.333 8.758,107.400 8.833,107.481 8.833 C 107.562 8.833,107.671 8.999,107.724 9.201 C 107.777 9.403,107.873 9.516,107.938 9.451 C 108.003 9.386,107.956 9.145,107.833 8.916 C 107.608 8.496,107.333 8.359,107.333 8.667 M330.000 8.730 C 330.000 8.868,330.075 9.027,330.167 9.083 C 330.258 9.140,330.333 9.074,330.333 8.936 C 330.333 8.799,330.258 8.640,330.167 8.583 C 330.075 8.527,330.000 8.593,330.000 8.730 M28.753 8.829 C 28.578 9.111,28.660 22.893,28.837 23.070 C 28.943 23.177,29.000 20.701,29.000 15.950 C 29.000 11.944,28.967 8.667,28.927 8.667 C 28.886 8.667,28.808 8.740,28.753 8.829 M282.116 9.657 C 282.165 9.846,282.272 10.000,282.353 10.000 C 282.578 10.000,282.528 9.731,282.263 9.511 C 282.069 9.350,282.042 9.376,282.116 9.657 M308.045 10.000 C 308.045 10.412,308.078 10.581,308.118 10.375 C 308.157 10.169,308.157 9.831,308.118 9.625 C 308.078 9.419,308.045 9.587,308.045 10.000 M330.167 9.907 C 330.167 10.233,330.242 10.500,330.333 10.500 C 330.425 10.500,330.500 10.279,330.500 10.010 C 330.500 9.740,330.425 9.473,330.333 9.417 C 330.234 9.355,330.167 9.554,330.167 9.907 M324.000 9.750 C 324.000 9.887,324.075 10.000,324.167 10.000 C 324.258 10.000,324.333 9.887,324.333 9.750 C 324.333 9.612,324.258 9.500,324.167 9.500 C 324.075 9.500,324.000 9.612,324.000 9.750 M324.382 11.000 L 324.417 11.750 327.387 11.796 C 329.381 11.826,330.323 11.785,330.252 11.671 C 330.187 11.565,329.097 11.500,327.410 11.500 L 324.673 11.500 324.572 11.042 C 324.395 10.240,324.347 10.230,324.382 11.000 M313.833 11.083 C 313.833 11.404,313.908 11.667,314.000 11.667 C 314.092 11.667,314.167 11.404,314.167 11.083 C 314.167 10.762,314.092 10.500,314.000 10.500 C 313.908 10.500,313.833 10.762,313.833 11.083 M18.000 11.083 C 17.886 11.221,17.689 11.333,17.563 11.333 C 17.437 11.333,17.333 11.408,17.333 11.500 C 17.333 11.808,17.747 11.660,18.049 11.245 C 18.374 10.798,18.337 10.677,18.000 11.083 M300.667 11.083 C 300.667 11.221,300.742 11.333,300.833 11.333 C 300.925 11.333,301.000 11.221,301.000 11.083 C 301.000 10.946,300.925 10.833,300.833 10.833 C 300.742 10.833,300.667 10.946,300.667 11.083 M300.833 11.907 C 300.833 12.039,300.908 12.193,301.000 12.250 C 301.092 12.307,301.167 12.199,301.167 12.010 C 301.167 11.821,301.092 11.667,301.000 11.667 C 300.908 11.667,300.833 11.775,300.833 11.907 M294.667 12.073 C 294.667 12.206,294.742 12.360,294.833 12.417 C 294.925 12.473,295.000 12.365,295.000 12.177 C 295.000 11.988,294.925 11.833,294.833 11.833 C 294.742 11.833,294.667 11.941,294.667 12.073 M102.408 12.181 C 102.346 12.281,102.379 12.446,102.481 12.548 C 102.617 12.684,102.667 12.636,102.667 12.367 C 102.667 11.964,102.580 11.902,102.408 12.181 M295.000 13.000 C 295.000 13.311,295.044 13.356,295.200 13.200 C 295.356 13.044,295.356 12.956,295.200 12.800 C 295.044 12.644,295.000 12.689,295.000 13.000 M102.667 13.157 C 102.667 13.346,102.742 13.500,102.833 13.500 C 102.925 13.500,103.000 13.392,103.000 13.260 C 103.000 13.128,102.925 12.973,102.833 12.917 C 102.742 12.860,102.667 12.968,102.667 13.157 M301.167 15.083 C 301.167 16.229,301.234 17.167,301.315 17.167 C 301.397 17.167,301.464 16.229,301.464 15.083 C 301.464 13.938,301.397 13.000,301.315 13.000 C 301.234 13.000,301.167 13.938,301.167 15.083 M57.616 13.490 C 57.665 13.679,57.772 13.833,57.853 13.833 C 58.078 13.833,58.028 13.564,57.763 13.344 C 57.569 13.183,57.542 13.209,57.616 13.490 M108.833 15.083 C 108.833 16.028,108.901 16.667,109.000 16.667 C 109.099 16.667,109.167 16.028,109.167 15.083 C 109.167 14.139,109.099 13.500,109.000 13.500 C 108.901 13.500,108.833 14.139,108.833 15.083 M295.167 15.083 C 295.167 15.806,295.237 16.333,295.333 16.333 C 295.430 16.333,295.500 15.806,295.500 15.083 C 295.500 14.361,295.430 13.833,295.333 13.833 C 295.237 13.833,295.167 14.361,295.167 15.083 M102.833 15.073 C 102.833 15.491,102.908 15.833,103.000 15.833 C 103.092 15.833,103.167 15.538,103.167 15.177 C 103.167 14.815,103.092 14.473,103.000 14.417 C 102.898 14.354,102.833 14.609,102.833 15.073 M399.333 15.740 C 399.333 15.975,399.408 16.167,399.500 16.167 C 399.592 16.167,399.667 16.021,399.667 15.843 C 399.667 15.665,399.592 15.473,399.500 15.417 C 399.405 15.358,399.333 15.498,399.333 15.740 M13.101 15.931 C 13.039 16.093,13.076 16.169,13.198 16.129 C 13.447 16.045,13.584 15.667,13.365 15.667 C 13.276 15.667,13.157 15.785,13.101 15.931 M393.408 16.515 C 393.346 16.614,393.379 16.779,393.481 16.881 C 393.617 17.017,393.667 16.969,393.667 16.700 C 393.667 16.298,393.580 16.236,393.408 16.515 M102.667 17.010 C 102.667 17.199,102.742 17.307,102.833 17.250 C 102.925 17.193,103.000 17.039,103.000 16.907 C 103.000 16.775,102.925 16.667,102.833 16.667 C 102.742 16.667,102.667 16.821,102.667 17.010 M177.500 19.677 C 177.500 21.530,177.558 22.484,177.667 22.417 C 177.767 22.355,177.833 21.220,177.833 19.573 C 177.833 17.858,177.771 16.833,177.667 16.833 C 177.562 16.833,177.500 17.892,177.500 19.677 M266.111 16.944 C 265.929 17.127,265.981 22.135,266.167 22.250 C 266.275 22.317,266.333 21.391,266.333 19.593 C 266.333 18.075,266.308 16.833,266.278 16.833 C 266.247 16.833,266.172 16.883,266.111 16.944 M399.568 17.063 C 399.520 17.189,399.553 17.546,399.642 17.855 L 399.803 18.417 399.818 17.625 C 399.833 16.839,399.737 16.623,399.568 17.063 M60.283 17.324 C 60.332 17.512,60.438 17.667,60.519 17.667 C 60.744 17.667,60.695 17.398,60.430 17.178 C 60.235 17.016,60.209 17.042,60.283 17.324 M94.616 17.324 C 94.665 17.512,94.772 17.667,94.853 17.667 C 95.078 17.667,95.028 17.398,94.763 17.178 C 94.569 17.016,94.542 17.042,94.616 17.324 M108.617 17.557 C 108.569 17.680,108.598 17.886,108.680 18.015 C 108.788 18.186,108.829 18.125,108.831 17.792 C 108.834 17.294,108.752 17.204,108.617 17.557 M311.844 17.596 C 312.064 17.862,312.333 17.911,312.333 17.686 C 312.333 17.605,312.179 17.499,311.990 17.449 C 311.709 17.376,311.683 17.402,311.844 17.596 M393.669 18.135 C 393.668 18.572,393.732 18.813,393.833 18.750 C 394.045 18.619,394.045 17.994,393.833 17.667 C 393.715 17.484,393.671 17.610,393.669 18.135 M294.755 17.882 C 294.684 18.047,294.672 18.228,294.729 18.285 C 294.899 18.454,295.035 18.216,294.957 17.888 C 294.888 17.597,294.879 17.597,294.755 17.882 M108.333 18.843 C 108.333 19.032,108.408 19.140,108.500 19.083 C 108.592 19.027,108.667 18.872,108.667 18.740 C 108.667 18.608,108.592 18.500,108.500 18.500 C 108.408 18.500,108.333 18.654,108.333 18.843 M221.616 18.990 C 221.665 19.179,221.772 19.333,221.853 19.333 C 222.078 19.333,222.028 19.064,221.763 18.844 C 221.569 18.683,221.542 18.709,221.616 18.990 M300.667 19.083 C 300.667 19.221,300.742 19.333,300.833 19.333 C 300.925 19.333,301.000 19.221,301.000 19.083 C 301.000 18.946,300.925 18.833,300.833 18.833 C 300.742 18.833,300.667 18.946,300.667 19.083 M54.333 19.573 C 54.333 19.808,54.408 20.000,54.500 20.000 C 54.592 20.000,54.667 19.854,54.667 19.677 C 54.667 19.499,54.592 19.307,54.500 19.250 C 54.405 19.192,54.333 19.332,54.333 19.573 M300.167 20.486 C 300.167 20.571,300.119 20.777,300.061 20.945 C 299.968 21.213,299.988 21.210,300.222 20.917 C 300.532 20.530,300.569 20.333,300.333 20.333 C 300.242 20.333,300.167 20.402,300.167 20.486 M393.667 21.177 C 393.667 21.585,393.733 21.812,393.833 21.750 C 393.925 21.693,394.000 21.389,394.000 21.073 C 394.000 20.758,393.925 20.500,393.833 20.500 C 393.742 20.500,393.667 20.804,393.667 21.177 M399.602 21.365 C 399.544 21.657,399.572 21.972,399.665 22.065 C 399.778 22.178,399.833 22.006,399.833 21.533 C 399.833 20.699,399.748 20.636,399.602 21.365 M98.748 22.503 C 98.683 22.609,98.488 22.659,98.315 22.613 C 98.116 22.562,98.000 22.618,98.000 22.766 C 98.000 22.895,98.094 22.998,98.208 22.995 C 98.491 22.988,99.083 22.527,98.963 22.407 C 98.910 22.354,98.813 22.398,98.748 22.503 M393.333 22.667 C 393.333 22.850,393.408 23.000,393.500 23.000 C 393.592 23.000,393.667 22.850,393.667 22.667 C 393.667 22.483,393.592 22.333,393.500 22.333 C 393.408 22.333,393.333 22.483,393.333 22.667 M399.333 23.250 C 399.333 23.498,399.405 23.642,399.500 23.583 C 399.592 23.527,399.667 23.377,399.667 23.250 C 399.667 23.123,399.592 22.973,399.500 22.917 C 399.405 22.858,399.333 23.002,399.333 23.250 M283.833 23.563 C 283.833 23.807,283.309 23.833,278.500 23.833 C 275.056 23.833,273.167 23.892,273.167 24.000 C 273.167 24.108,275.139 24.167,278.750 24.167 C 284.546 24.167,284.842 24.130,284.083 23.500 C 283.879 23.330,283.833 23.341,283.833 23.563 M360.458 23.448 C 360.298 23.490,360.167 23.594,360.167 23.679 C 360.167 23.914,360.434 23.863,360.667 23.583 C 360.781 23.446,360.846 23.342,360.812 23.353 C 360.778 23.363,360.619 23.406,360.458 23.448 M86.083 23.833 L 80.417 23.917 80.373 31.125 C 80.344 35.899,80.387 38.333,80.498 38.333 C 80.609 38.333,80.667 35.911,80.667 31.250 L 80.667 24.167 86.240 24.167 C 89.500 24.167,91.853 24.102,91.910 24.012 C 92.070 23.752,91.932 23.747,86.083 23.833 M253.011 24.737 C 252.850 24.931,252.876 24.958,253.157 24.884 C 253.346 24.835,253.500 24.728,253.500 24.647 C 253.500 24.422,253.231 24.472,253.011 24.737 M58.110 25.075 C 58.048 25.236,58.097 25.286,58.258 25.224 C 58.391 25.173,58.500 25.226,58.500 25.343 C 58.500 25.460,58.539 25.516,58.587 25.468 C 58.705 25.351,58.498 24.833,58.333 24.833 C 58.261 24.833,58.161 24.942,58.110 25.075 M398.759 25.595 C 398.697 25.923,398.605 26.316,398.553 26.470 C 398.496 26.640,398.569 26.603,398.739 26.375 C 398.893 26.168,398.976 25.930,398.924 25.845 C 398.871 25.759,398.904 25.643,398.997 25.585 C 399.206 25.456,399.222 25.000,399.019 25.000 C 398.937 25.000,398.820 25.268,398.759 25.595 M130.000 25.313 C 130.000 25.393,130.107 25.548,130.237 25.656 C 130.431 25.817,130.458 25.791,130.384 25.510 C 130.297 25.175,130.000 25.023,130.000 25.313 M398.167 27.153 C 398.167 27.237,398.119 27.443,398.061 27.611 C 397.968 27.880,397.988 27.876,398.222 27.583 C 398.532 27.197,398.569 27.000,398.333 27.000 C 398.242 27.000,398.167 27.069,398.167 27.153 M259.625 27.282 C 259.465 27.323,259.333 27.427,259.333 27.512 C 259.333 27.748,259.601 27.697,259.833 27.417 C 259.947 27.279,260.013 27.175,259.979 27.186 C 259.945 27.197,259.785 27.240,259.625 27.282 M323.958 27.494 C 324.218 27.708,324.340 28.001,324.355 28.443 L 324.377 29.083 324.490 28.500 C 324.628 27.785,324.464 27.405,323.964 27.279 L 323.583 27.184 323.958 27.494 M308.083 27.500 C 308.016 27.609,308.998 27.667,310.907 27.667 L 313.833 27.667 313.833 28.250 C 313.833 28.571,313.908 28.833,314.000 28.833 C 314.183 28.833,314.226 28.016,314.066 27.597 C 313.946 27.285,308.273 27.193,308.083 27.500 M101.505 27.827 C 101.370 27.912,101.310 28.032,101.372 28.094 C 101.434 28.156,101.606 28.085,101.754 27.937 C 102.047 27.643,101.899 27.578,101.505 27.827 M397.667 28.153 C 397.667 28.237,397.619 28.443,397.561 28.611 C 397.468 28.880,397.488 28.876,397.722 28.583 C 398.032 28.197,398.069 28.000,397.833 28.000 C 397.742 28.000,397.667 28.069,397.667 28.153 M308.045 29.000 C 308.045 29.412,308.078 29.581,308.118 29.375 C 308.157 29.169,308.157 28.831,308.118 28.625 C 308.078 28.419,308.045 28.587,308.045 29.000 M330.167 29.240 C 330.167 29.566,330.242 29.833,330.333 29.833 C 330.425 29.833,330.500 29.613,330.500 29.343 C 330.500 29.074,330.425 28.807,330.333 28.750 C 330.234 28.689,330.167 28.887,330.167 29.240 M397.116 29.343 C 397.042 29.624,397.069 29.650,397.263 29.489 C 397.528 29.269,397.578 29.000,397.353 29.000 C 397.272 29.000,397.165 29.154,397.116 29.343 M314.259 29.659 C 314.324 29.884,314.480 30.170,314.605 30.296 C 314.948 30.638,314.878 30.317,314.486 29.750 C 314.175 29.299,314.153 29.290,314.259 29.659 M86.500 29.833 C 86.500 29.940,88.142 30.000,91.093 30.000 C 94.113 30.000,95.651 29.943,95.583 29.833 C 95.519 29.729,93.804 29.667,90.990 29.667 C 88.108 29.667,86.500 29.726,86.500 29.833 M278.833 29.833 C 278.833 29.940,280.472 30.000,283.417 30.000 C 286.361 30.000,288.000 29.940,288.000 29.833 C 288.000 29.726,286.361 29.667,283.417 29.667 C 280.472 29.667,278.833 29.726,278.833 29.833 M330.120 30.222 C 329.934 30.694,329.965 30.935,330.182 30.718 C 330.283 30.617,330.337 30.396,330.302 30.226 C 330.242 29.928,330.236 29.928,330.120 30.222 M308.167 30.417 C 308.167 30.554,308.242 30.667,308.333 30.667 C 308.425 30.667,308.500 30.554,308.500 30.417 C 308.500 30.279,308.425 30.167,308.333 30.167 C 308.242 30.167,308.167 30.279,308.167 30.417 M308.333 31.250 C 308.333 31.387,308.408 31.500,308.500 31.500 C 308.592 31.500,308.667 31.387,308.667 31.250 C 308.667 31.113,308.592 31.000,308.500 31.000 C 308.408 31.000,308.333 31.113,308.333 31.250 M28.667 34.740 C 28.667 36.943,28.731 38.353,28.833 38.417 C 28.943 38.484,29.000 37.252,29.000 34.843 C 29.000 32.503,28.939 31.167,28.833 31.167 C 28.727 31.167,28.667 32.469,28.667 34.740 M329.500 31.986 C 329.500 32.071,329.452 32.277,329.394 32.445 C 329.301 32.713,329.321 32.710,329.556 32.417 C 329.865 32.030,329.903 31.833,329.667 31.833 C 329.575 31.833,329.500 31.902,329.500 31.986 M384.417 32.333 C 384.360 32.425,384.468 32.500,384.657 32.500 C 384.846 32.500,385.000 32.425,385.000 32.333 C 385.000 32.242,384.892 32.167,384.760 32.167 C 384.628 32.167,384.473 32.242,384.417 32.333 M296.783 32.657 C 296.832 32.846,296.938 33.000,297.019 33.000 C 297.244 33.000,297.195 32.731,296.930 32.511 C 296.735 32.350,296.709 32.376,296.783 32.657 M317.833 32.833 C 317.833 32.925,317.983 33.000,318.167 33.000 C 318.350 33.000,318.500 32.925,318.500 32.833 C 318.500 32.742,318.350 32.667,318.167 32.667 C 317.983 32.667,317.833 32.742,317.833 32.833 M320.000 32.833 C 320.000 32.925,320.150 33.000,320.333 33.000 C 320.517 33.000,320.667 32.925,320.667 32.833 C 320.667 32.742,320.517 32.667,320.333 32.667 C 320.150 32.667,320.000 32.742,320.000 32.833 M381.833 32.833 C 381.833 32.925,382.091 33.000,382.407 33.000 C 382.722 33.000,383.027 32.925,383.083 32.833 C 383.146 32.733,382.918 32.667,382.510 32.667 C 382.138 32.667,381.833 32.742,381.833 32.833 M241.950 35.603 C 241.968 37.126,242.024 38.413,242.075 38.464 C 242.125 38.514,242.167 37.268,242.167 35.694 C 242.167 34.121,242.110 32.833,242.042 32.833 C 241.973 32.833,241.932 34.080,241.950 35.603 M177.500 35.750 C 177.500 37.554,177.558 38.484,177.667 38.417 C 177.766 38.355,177.833 37.279,177.833 35.750 C 177.833 34.221,177.766 33.145,177.667 33.083 C 177.558 33.016,177.500 33.946,177.500 35.750 M209.833 35.750 C 209.833 37.361,209.896 38.333,210.000 38.333 C 210.104 38.333,210.167 37.361,210.167 35.750 C 210.167 34.139,210.104 33.167,210.000 33.167 C 209.896 33.167,209.833 34.139,209.833 35.750 M266.111 33.278 C 265.936 33.453,265.987 38.055,266.167 38.333 C 266.275 38.500,266.329 37.685,266.331 35.875 C 266.332 34.385,266.308 33.167,266.278 33.167 C 266.247 33.167,266.172 33.217,266.111 33.278 M337.500 35.843 C 337.500 37.585,337.558 38.484,337.667 38.417 C 337.766 38.355,337.833 37.276,337.833 35.740 C 337.833 34.136,337.771 33.167,337.667 33.167 C 337.562 33.167,337.500 34.170,337.500 35.843 M137.167 35.813 C 137.167 35.893,137.273 36.048,137.404 36.156 C 137.598 36.317,137.624 36.291,137.551 36.010 C 137.463 35.675,137.167 35.523,137.167 35.813 M227.000 37.480 C 227.000 37.560,227.107 37.714,227.237 37.822 C 227.431 37.984,227.458 37.958,227.384 37.676 C 227.297 37.341,227.000 37.189,227.000 37.480 M386.917 37.833 C 386.860 37.925,386.926 38.000,387.064 38.000 C 387.201 38.000,387.360 37.925,387.417 37.833 C 387.473 37.742,387.407 37.667,387.270 37.667 C 387.132 37.667,386.973 37.742,386.917 37.833 M322.000 38.500 C 322.000 38.592,322.108 38.667,322.240 38.667 C 322.372 38.667,322.527 38.592,322.583 38.500 C 322.640 38.408,322.532 38.333,322.343 38.333 C 322.154 38.333,322.000 38.408,322.000 38.500 M384.333 38.500 C 384.333 38.592,384.479 38.667,384.657 38.667 C 384.835 38.667,385.027 38.592,385.083 38.500 C 385.142 38.405,385.002 38.333,384.760 38.333 C 384.525 38.333,384.333 38.408,384.333 38.500 " stroke="none" fill="#210404" fill-rule="evenodd"></path></g></svg>