<svg id="svg" version="1.1" xmlns="http://www.w3.org/2000/svg" xmlns:xlink="http://www.w3.org/1999/xlink" width="400" height="225" viewBox="0, 0, 400,225"><g id="svgg"><path id="path0" d="M198.385 18.697 C 199.273 18.736,200.727 18.736,201.615 18.697 C 202.503 18.657,201.776 18.626,200.000 18.626 C 198.224 18.626,197.497 18.657,198.385 18.697 M194.427 18.894 C 194.628 18.946,194.956 18.946,195.156 18.894 C 195.357 18.841,195.193 18.798,194.792 18.798 C 194.391 18.798,194.227 18.841,194.427 18.894 M204.844 18.894 C 205.044 18.946,205.372 18.946,205.573 18.894 C 205.773 18.841,205.609 18.798,205.208 18.798 C 204.807 18.798,204.643 18.841,204.844 18.894 M223.767 24.036 C 223.982 24.228,225.208 24.792,225.208 24.698 C 225.208 24.578,224.053 23.958,223.830 23.958 C 223.748 23.958,223.720 23.993,223.767 24.036 M164.258 31.719 L 163.646 32.396 164.323 31.784 C 164.695 31.447,165.000 31.143,165.000 31.107 C 165.000 30.946,164.828 31.088,164.258 31.719 M235.000 31.107 C 235.000 31.143,235.305 31.447,235.677 31.784 L 236.354 32.396 235.742 31.719 C 235.172 31.088,235.000 30.946,235.000 31.107 M160.830 34.948 L 158.229 37.604 160.885 35.003 C 163.353 32.587,163.636 32.292,163.486 32.292 C 163.456 32.292,162.261 33.487,160.830 34.948 M238.958 34.896 C 240.387 36.328,241.603 37.500,241.660 37.500 C 241.718 37.500,240.596 36.328,239.167 34.896 C 237.738 33.464,236.522 32.292,236.465 32.292 C 236.407 32.292,237.529 33.464,238.958 34.896 M157.591 38.385 L 156.979 39.063 157.656 38.451 C 158.029 38.114,158.333 37.809,158.333 37.774 C 158.333 37.613,158.161 37.754,157.591 38.385 M241.667 37.774 C 241.667 37.809,241.971 38.114,242.344 38.451 L 243.021 39.063 242.409 38.385 C 241.839 37.754,241.667 37.613,241.667 37.774 M195.653 49.085 C 175.684 52.432,167.805 77.400,182.182 91.777 C 195.423 105.018,218.001 99.688,223.956 81.916 C 229.976 63.947,214.448 45.934,195.653 49.085 M202.903 61.406 C 204.390 64.414,205.680 66.875,205.769 66.875 C 206.142 66.875,217.005 68.373,217.281 68.462 C 217.478 68.526,216.082 70.062,213.244 72.902 L 208.906 77.244 209.961 83.253 C 210.541 86.558,210.981 89.297,210.937 89.341 C 210.893 89.385,208.448 88.089,205.504 86.461 C 200.592 83.746,200.106 83.522,199.618 83.744 C 199.325 83.877,196.893 85.207,194.214 86.699 C 191.534 88.190,189.302 89.371,189.253 89.323 C 189.205 89.274,189.599 86.537,190.130 83.239 L 191.094 77.243 186.747 72.893 C 184.356 70.500,182.446 68.534,182.502 68.525 C 182.558 68.516,185.310 68.117,188.617 67.640 L 194.630 66.771 197.263 61.312 C 198.711 58.310,199.964 55.872,200.048 55.895 C 200.131 55.919,201.416 58.398,202.903 61.406 M255.048 68.750 C 255.048 69.151,255.091 69.315,255.144 69.115 C 255.196 68.914,255.196 68.586,255.144 68.385 C 255.091 68.185,255.048 68.349,255.048 68.750 M144.667 73.958 C 144.667 75.734,144.699 76.461,144.738 75.573 C 144.777 74.685,144.777 73.232,144.738 72.344 C 144.699 71.456,144.667 72.182,144.667 73.958 M255.292 73.958 C 255.292 75.734,255.324 76.461,255.363 75.573 C 255.402 74.685,255.402 73.232,255.363 72.344 C 255.324 71.456,255.292 72.182,255.292 73.958 M144.840 79.167 C 144.840 79.568,144.883 79.732,144.935 79.531 C 144.988 79.331,144.988 79.003,144.935 78.802 C 144.883 78.602,144.840 78.766,144.840 79.167 M255.048 79.167 C 255.048 79.568,255.091 79.732,255.144 79.531 C 255.196 79.331,255.196 79.003,255.144 78.802 C 255.091 78.602,255.048 78.766,255.048 79.167 M157.083 109.024 C 157.083 109.059,157.388 109.364,157.760 109.701 L 158.438 110.313 157.826 109.635 C 157.255 109.004,157.083 108.863,157.083 109.024 M242.174 109.635 L 241.563 110.313 242.240 109.701 C 242.871 109.130,243.012 108.958,242.851 108.958 C 242.816 108.958,242.511 109.263,242.174 109.635 M160.833 113.021 C 162.262 114.453,163.478 115.625,163.535 115.625 C 163.593 115.625,162.471 114.453,161.042 113.021 C 159.613 111.589,158.397 110.417,158.340 110.417 C 158.282 110.417,159.404 111.589,160.833 113.021 M238.955 113.073 L 236.354 115.729 239.010 113.128 C 241.478 110.712,241.761 110.417,241.611 110.417 C 241.581 110.417,240.386 111.612,238.955 113.073 M163.750 115.690 C 163.750 115.726,164.055 116.031,164.427 116.367 L 165.104 116.979 164.492 116.302 C 163.922 115.671,163.750 115.529,163.750 115.690 M235.508 116.302 L 234.896 116.979 235.573 116.367 C 236.204 115.797,236.346 115.625,236.185 115.625 C 236.149 115.625,235.844 115.930,235.508 116.302 M194.427 129.102 C 194.628 129.154,194.956 129.154,195.156 129.102 C 195.357 129.050,195.193 129.007,194.792 129.007 C 194.391 129.007,194.227 129.050,194.427 129.102 M204.844 129.102 C 205.044 129.154,205.372 129.154,205.573 129.102 C 205.773 129.050,205.609 129.007,205.208 129.007 C 204.807 129.007,204.643 129.050,204.844 129.102 M198.385 129.322 C 199.273 129.361,200.727 129.361,201.615 129.322 C 202.503 129.282,201.776 129.251,200.000 129.251 C 198.224 129.251,197.497 129.282,198.385 129.322 M25.308 167.083 C 25.308 176.307,25.333 180.081,25.365 175.469 C 25.396 170.857,25.396 163.310,25.365 158.698 C 25.333 154.086,25.308 157.859,25.308 167.083 M35.104 155.208 C 37.738 157.844,39.939 160.000,39.997 160.000 C 40.054 160.000,37.946 157.844,35.313 155.208 C 32.679 152.573,30.477 150.417,30.420 150.417 C 30.363 150.417,32.471 152.573,35.104 155.208 M44.998 155.365 L 40.104 160.313 45.052 155.418 C 47.773 152.727,50.000 150.500,50.000 150.470 C 50.000 150.323,49.546 150.767,44.998 155.365 M62.183 167.083 C 62.183 176.307,62.208 180.081,62.240 175.469 C 62.271 170.857,62.271 163.310,62.240 158.698 C 62.208 154.086,62.183 157.859,62.183 167.083 M94.872 152.917 C 94.872 154.349,94.905 154.935,94.946 154.219 C 94.987 153.503,94.987 152.331,94.946 151.615 C 94.905 150.898,94.872 151.484,94.872 152.917 M179.039 152.917 C 179.039 154.349,179.072 154.935,179.113 154.219 C 179.153 153.503,179.153 152.331,179.113 151.615 C 179.072 150.898,179.039 151.484,179.039 152.917 M184.891 167.083 C 184.891 176.307,184.917 180.081,184.948 175.469 C 184.979 170.857,184.979 163.310,184.948 158.698 C 184.917 154.086,184.891 157.859,184.891 167.083 M228.016 167.083 C 228.016 176.307,228.042 180.081,228.073 175.469 C 228.104 170.857,228.104 163.310,228.073 158.698 C 228.042 154.086,228.016 157.859,228.016 167.083 M318.013 160.000 C 318.013 165.328,318.040 167.508,318.073 164.844 C 318.106 162.180,318.106 157.820,318.073 155.156 C 318.040 152.492,318.013 154.672,318.013 160.000 M294.888 153.385 L 293.854 154.479 294.948 153.445 C 295.549 152.877,296.042 152.385,296.042 152.352 C 296.042 152.196,295.849 152.369,294.888 153.385 M308.741 153.177 C 309.605 154.097,309.792 154.262,309.792 154.106 C 309.792 154.072,309.346 153.627,308.802 153.116 L 307.813 152.188 308.741 153.177 M282.500 154.063 C 283.122 154.693,283.678 155.208,283.736 155.208 C 283.793 155.208,283.331 154.693,282.708 154.063 C 282.086 153.432,281.530 152.917,281.473 152.917 C 281.415 152.917,281.878 153.432,282.500 154.063 M115.729 154.167 C 116.177 154.625,116.590 155.000,116.647 155.000 C 116.704 155.000,116.385 154.625,115.938 154.167 C 115.490 153.708,115.077 153.333,115.020 153.333 C 114.962 153.333,115.282 153.708,115.729 154.167 M365.417 153.807 C 365.417 153.839,366.143 154.565,367.031 155.422 L 368.646 156.979 367.089 155.365 C 365.642 153.865,365.417 153.655,365.417 153.807 M163.214 160.000 C 163.214 162.578,163.244 163.633,163.281 162.344 C 163.317 161.055,163.317 158.945,163.281 157.656 C 163.244 156.367,163.214 157.422,163.214 160.000 M298.739 156.823 L 298.021 157.604 298.802 156.886 C 299.529 156.218,299.679 156.042,299.520 156.042 C 299.485 156.042,299.134 156.393,298.739 156.823 M111.979 157.708 C 112.543 158.281,113.052 158.750,113.109 158.750 C 113.167 158.750,112.752 158.281,112.188 157.708 C 111.623 157.135,111.115 156.667,111.057 156.667 C 111.000 156.667,111.415 157.135,111.979 157.708 M33.438 160.625 C 35.039 162.229,36.395 163.542,36.453 163.542 C 36.510 163.542,35.247 162.229,33.646 160.625 C 32.045 159.021,30.688 157.708,30.631 157.708 C 30.573 157.708,31.836 159.021,33.438 160.625 M46.872 160.781 L 43.854 163.854 46.924 160.839 L 49.994 157.824 50.052 163.964 L 50.111 170.104 50.160 163.906 C 50.186 160.497,50.137 157.708,50.049 157.708 C 49.962 157.708,48.532 159.091,46.872 160.781 M356.457 165.156 L 350.104 171.563 356.510 165.210 C 360.034 161.716,362.917 158.833,362.917 158.803 C 362.917 158.656,362.361 159.203,356.457 165.156 M198.485 170.208 L 207.073 178.854 207.138 181.354 L 207.202 183.854 207.247 181.353 L 207.292 178.852 198.594 170.207 L 189.896 161.563 198.485 170.208 M357.916 170.781 L 350.104 178.646 357.969 170.834 C 362.294 166.538,365.833 162.999,365.833 162.970 C 365.833 162.823,365.176 163.472,357.916 170.781 M33.438 166.875 C 31.722 168.594,30.365 170.000,30.422 170.000 C 30.479 170.000,31.930 168.594,33.646 166.875 C 35.362 165.156,36.719 163.750,36.661 163.750 C 36.604 163.750,35.153 165.156,33.438 166.875 M46.771 166.875 C 48.372 168.479,49.729 169.792,49.786 169.792 C 49.843 169.792,48.580 168.479,46.979 166.875 C 45.378 165.271,44.021 163.958,43.964 163.958 C 43.907 163.958,45.170 165.271,46.771 166.875 M179.003 166.963 C 178.967 168.954,178.888 169.532,178.601 169.879 L 178.245 170.313 178.713 169.883 C 179.156 169.477,179.177 169.321,179.114 166.966 L 179.048 164.479 179.003 166.963 M35.207 172.448 L 30.313 177.396 35.260 172.502 C 39.858 167.954,40.302 167.500,40.155 167.500 C 40.125 167.500,37.898 169.727,35.207 172.448 M45.104 172.292 C 47.738 174.927,49.939 177.083,49.997 177.083 C 50.054 177.083,47.946 174.927,45.313 172.292 C 42.679 169.656,40.477 167.500,40.420 167.500 C 40.363 167.500,42.471 169.656,45.104 172.292 M279.049 168.594 L 278.438 169.271 279.115 168.659 C 279.746 168.089,279.887 167.917,279.726 167.917 C 279.691 167.917,279.386 168.221,279.049 168.594 M194.896 173.750 C 197.529 176.385,199.731 178.542,199.788 178.542 C 199.846 178.542,197.738 176.385,195.104 173.750 C 192.471 171.115,190.269 168.958,190.212 168.958 C 190.154 168.958,192.262 171.115,194.896 173.750 M310.417 170.690 C 310.417 170.726,310.721 171.031,311.094 171.367 L 311.771 171.979 311.159 171.302 C 310.589 170.671,310.417 170.529,310.417 170.690 M94.884 177.292 C 94.884 180.901,94.913 182.378,94.948 180.573 C 94.982 178.768,94.982 175.815,94.948 174.010 C 94.913 172.206,94.884 173.682,94.884 177.292 M282.598 172.135 L 281.354 173.438 282.656 172.194 C 283.866 171.039,284.054 170.833,283.900 170.833 C 283.867 170.833,283.282 171.419,282.598 172.135 M115.513 172.344 L 114.479 173.438 115.573 172.404 C 116.589 171.443,116.762 171.250,116.607 171.250 C 116.574 171.250,116.082 171.742,115.513 172.344 M363.221 175.469 L 362.188 176.563 363.281 175.529 C 363.883 174.960,364.375 174.468,364.375 174.435 C 364.375 174.279,364.182 174.452,363.221 175.469 M298.750 177.396 C 299.139 177.797,299.504 178.125,299.561 178.125 C 299.618 178.125,299.347 177.797,298.958 177.396 C 298.570 176.995,298.205 176.667,298.147 176.667 C 298.090 176.667,298.361 176.995,298.750 177.396 M50.084 180.521 C 50.085 182.354,50.116 183.076,50.155 182.126 C 50.194 181.175,50.194 179.675,50.155 178.792 C 50.116 177.910,50.084 178.688,50.084 180.521 M318.144 178.623 C 317.983 178.817,317.925 179.731,317.969 181.384 L 318.035 183.854 318.080 181.344 C 318.109 179.725,318.214 178.745,318.375 178.583 C 318.513 178.446,318.571 178.333,318.505 178.333 C 318.438 178.333,318.276 178.464,318.144 178.623 M179.039 181.250 C 179.039 182.682,179.072 183.268,179.113 182.552 C 179.153 181.836,179.153 180.664,179.113 179.948 C 179.072 179.232,179.039 179.818,179.039 181.250 M308.750 180.938 C 308.244 181.453,307.877 181.875,307.934 181.875 C 307.991 181.875,308.452 181.453,308.958 180.938 C 309.464 180.422,309.832 180.000,309.774 180.000 C 309.717 180.000,309.256 180.422,308.750 180.938 M295.000 180.938 C 295.389 181.339,295.754 181.667,295.811 181.667 C 295.868 181.667,295.597 181.339,295.208 180.938 C 294.820 180.536,294.455 180.208,294.397 180.208 C 294.340 180.208,294.611 180.536,295.000 180.938 " stroke="none" fill="#068a9a" fill-rule="evenodd"></path><path id="path1" d="M196.354 29.911 C 196.010 29.958,194.885 30.102,193.854 30.231 C 168.283 33.434,150.776 59.498,157.193 84.812 C 163.159 108.349,187.315 122.732,210.854 116.766 C 234.390 110.799,248.774 86.644,242.807 63.104 C 238.491 46.076,224.469 33.279,206.872 30.309 C 204.998 29.993,197.754 29.719,196.354 29.911 M206.979 38.731 C 230.199 43.511,242.576 68.743,232.076 89.896 C 221.165 111.875,192.048 116.632,174.687 99.271 C 156.261 80.845,162.990 49.666,187.404 40.349 C 193.101 38.175,201.075 37.516,206.979 38.731 M197.263 61.312 L 194.630 66.771 188.617 67.640 C 185.310 68.117,182.558 68.516,182.502 68.525 C 182.446 68.534,184.356 70.500,186.747 72.893 L 191.094 77.243 190.130 83.239 C 189.599 86.537,189.205 89.274,189.253 89.323 C 189.302 89.371,191.534 88.190,194.214 86.699 C 196.893 85.207,199.325 83.877,199.618 83.744 C 200.106 83.522,200.592 83.746,205.504 86.461 C 208.448 88.089,210.893 89.385,210.937 89.341 C 210.981 89.297,210.541 86.558,209.961 83.253 L 208.906 77.244 213.244 72.902 C 216.082 70.062,217.478 68.526,217.281 68.462 C 217.005 68.373,206.142 66.875,205.769 66.875 C 205.680 66.875,204.390 64.414,202.903 61.406 C 201.416 58.398,200.131 55.919,200.048 55.895 C 199.964 55.872,198.711 58.310,197.263 61.312 " stroke="none" fill="#fafafa" fill-rule="evenodd"></path><path id="path2" d="M194.896 18.875 C 194.552 18.922,193.193 19.109,191.875 19.289 C 159.966 23.650,138.431 56.049,146.458 87.618 C 153.636 115.848,182.116 133.863,210.625 128.208 C 241.704 122.042,261.341 90.970,253.542 60.299 C 248.130 39.013,230.235 22.770,208.333 19.265 C 206.250 18.931,196.529 18.649,194.896 18.875 M206.872 30.309 C 232.672 34.664,249.175 59.693,242.807 84.812 C 235.950 111.862,205.854 125.845,180.729 113.654 C 158.786 103.006,149.653 76.639,160.305 54.688 C 166.688 41.532,179.771 31.995,193.854 30.231 C 194.885 30.102,196.010 29.958,196.354 29.911 C 197.754 29.719,204.998 29.993,206.872 30.309 M194.693 38.443 C 165.515 43.175,153.902 78.486,174.687 99.271 C 192.048 116.632,221.165 111.875,232.076 89.896 C 242.576 68.743,230.199 43.511,206.979 38.731 C 204.191 38.157,197.432 37.999,194.693 38.443 M204.161 49.072 C 224.277 52.334,232.269 77.326,217.818 91.777 C 204.577 105.018,181.999 99.688,176.044 81.916 C 170.045 64.010,185.433 46.035,204.161 49.072 M25.417 167.090 L 25.417 183.763 27.865 183.705 L 30.313 183.646 30.369 180.417 L 30.425 177.188 35.263 172.344 C 37.924 169.680,40.198 167.500,40.317 167.500 C 40.435 167.500,42.710 169.684,45.370 172.354 L 50.208 177.208 50.208 180.486 L 50.208 183.763 52.656 183.705 L 55.104 183.646 55.104 167.083 L 55.104 150.521 52.613 150.462 L 50.121 150.403 45.169 155.352 L 40.217 160.301 35.259 155.359 L 30.301 150.417 27.859 150.417 L 25.417 150.417 25.417 167.090 M62.292 167.083 L 62.292 183.750 64.763 183.750 L 67.235 183.750 71.361 177.699 C 75.037 172.307,75.521 171.682,75.801 171.961 C 75.973 172.134,77.856 174.834,79.984 177.961 L 83.854 183.646 86.847 183.704 C 89.309 183.751,89.821 183.711,89.732 183.477 C 89.671 183.321,84.585 175.818,78.428 166.805 L 67.234 150.417 64.763 150.417 L 62.292 150.417 62.292 167.083 M95.000 152.904 L 95.000 155.391 99.877 163.060 L 104.755 170.729 99.877 170.785 L 95.000 170.841 95.000 177.302 L 95.000 183.763 97.448 183.705 L 99.896 183.646 99.953 179.844 L 100.009 176.042 104.062 176.042 L 108.114 176.042 109.109 177.615 C 109.656 178.480,110.760 180.191,111.563 181.417 L 113.021 183.646 115.885 183.704 C 117.461 183.736,118.750 183.697,118.750 183.617 C 118.750 183.538,117.484 181.490,115.938 179.066 C 112.720 174.025,112.843 174.381,114.040 173.557 C 120.767 168.929,121.301 159.148,115.129 153.638 C 111.902 150.758,110.489 150.417,101.793 150.417 L 95.000 150.417 95.000 152.904 M123.337 150.463 C 123.340 150.495,128.434 157.974,134.659 167.083 L 145.976 183.646 148.509 183.704 L 151.042 183.763 151.042 167.090 L 151.042 150.417 148.543 150.417 L 146.045 150.417 145.991 162.610 L 145.938 174.803 137.691 162.662 L 129.444 150.521 126.389 150.463 C 124.708 150.431,123.335 150.431,123.337 150.463 M158.220 150.677 C 158.165 150.820,158.145 155.109,158.175 160.208 L 158.229 169.479 164.373 169.583 L 170.517 169.688 164.315 174.255 L 158.112 178.822 158.171 181.234 L 158.229 183.646 168.594 183.700 L 178.958 183.754 178.958 181.255 L 178.958 178.756 172.873 178.701 L 166.787 178.646 172.873 174.102 L 178.958 169.559 178.958 167.071 L 178.958 164.583 171.042 164.583 L 163.125 164.583 163.125 160.000 L 163.125 155.417 171.042 155.417 L 178.958 155.417 178.958 152.917 L 178.958 150.417 168.639 150.417 C 160.576 150.417,158.298 150.474,158.220 150.677 M185.000 167.077 L 185.000 183.750 196.042 183.750 L 207.083 183.750 207.083 181.301 L 207.083 178.852 198.545 170.316 L 190.007 161.779 189.951 156.150 L 189.896 150.521 187.448 150.462 L 185.000 150.403 185.000 167.077 M200.483 150.706 C 200.547 150.871,205.631 158.374,211.781 167.378 L 222.963 183.750 225.440 183.750 L 227.917 183.750 227.917 167.077 L 227.917 150.403 225.469 150.462 L 223.021 150.521 222.917 162.604 L 222.813 174.688 220.417 171.186 C 219.099 169.260,215.396 163.822,212.188 159.102 L 206.354 150.521 203.361 150.463 C 200.821 150.414,200.385 150.451,200.483 150.706 M235.096 150.675 C 235.041 150.819,235.020 155.109,235.050 160.208 L 235.104 169.479 241.250 169.583 L 247.396 169.688 244.583 171.776 C 243.036 172.925,240.245 174.987,238.379 176.358 L 234.988 178.851 235.046 181.248 L 235.104 183.646 245.521 183.646 L 255.938 183.646 255.938 181.250 L 255.938 178.854 249.844 178.750 L 243.751 178.646 249.844 174.063 L 255.938 169.479 255.938 167.083 L 255.938 164.688 248.073 164.633 L 240.208 164.578 240.208 160.000 L 240.208 155.422 248.073 155.367 L 255.938 155.313 255.938 152.917 L 255.938 150.521 245.567 150.467 C 237.382 150.424,235.176 150.468,235.096 150.675 M261.879 152.852 L 261.883 155.313 266.781 163.021 L 271.679 170.729 266.829 170.833 L 261.979 170.938 261.924 177.344 L 261.869 183.750 264.372 183.750 L 266.875 183.750 266.875 179.896 L 266.875 176.042 270.990 176.052 L 275.104 176.063 277.502 179.854 L 279.900 183.646 282.763 183.704 C 284.522 183.739,285.625 183.684,285.625 183.559 C 285.625 183.447,284.359 181.380,282.813 178.966 C 279.585 173.928,279.757 174.392,280.838 173.643 C 289.359 167.737,287.735 154.988,277.964 151.084 L 276.563 150.525 269.219 150.459 L 261.875 150.392 261.879 152.852 M298.989 150.822 C 294.900 152.334,292.495 155.615,292.331 159.905 L 292.242 162.221 294.090 163.777 C 295.106 164.632,298.240 167.218,301.053 169.523 C 307.144 174.513,306.697 174.040,306.436 175.215 C 305.366 180.024,298.196 179.767,297.513 174.896 L 297.396 174.063 294.944 174.004 C 292.091 173.935,292.097 173.931,292.454 175.853 C 293.079 179.212,295.908 182.358,299.205 183.359 C 305.491 185.269,311.667 180.518,311.667 173.772 C 311.667 171.576,312.510 172.482,303.906 165.436 C 296.759 159.583,296.947 159.818,297.904 157.941 C 299.863 154.101,305.589 154.875,306.466 159.097 L 306.699 160.221 309.131 160.163 L 311.563 160.104 311.633 159.485 C 312.242 154.122,304.468 148.795,298.989 150.822 M318.125 159.995 L 318.125 169.577 324.286 169.632 L 330.448 169.688 324.286 174.233 L 318.125 178.779 318.125 181.266 L 318.125 183.754 328.490 183.700 L 338.854 183.646 338.854 181.250 L 338.854 178.854 332.813 178.750 L 326.771 178.646 332.871 174.081 L 338.971 169.517 338.913 167.102 L 338.854 164.688 330.990 164.633 L 323.125 164.578 323.125 160.000 L 323.125 155.422 330.990 155.367 L 338.854 155.313 338.854 152.917 L 338.854 150.521 328.490 150.467 L 318.125 150.413 318.125 159.995 M344.888 150.677 C 344.833 150.820,344.812 158.297,344.842 167.292 L 344.896 183.646 350.938 183.706 C 359.978 183.795,362.710 183.002,366.685 179.131 C 376.296 169.772,371.573 153.196,358.589 150.712 C 356.503 150.313,345.038 150.284,344.888 150.677 M109.955 156.133 C 114.263 158.096,115.715 163.618,112.985 167.651 C 112.089 168.975,110.466 170.144,110.082 169.743 C 109.761 169.408,101.042 155.668,101.042 155.497 C 101.042 155.016,108.701 155.562,109.955 156.133 M275.735 155.740 C 280.884 157.081,283.012 163.439,279.797 167.877 C 279.285 168.583,277.562 170.000,277.215 170.000 C 277.135 170.000,268.867 157.087,268.044 155.677 C 267.805 155.268,274.123 155.320,275.735 155.740 M358.514 155.906 C 359.992 156.328,361.599 157.129,362.500 157.892 L 363.229 158.510 356.775 164.984 C 353.226 168.545,350.249 171.458,350.161 171.458 C 350.072 171.458,350.000 167.837,350.000 163.412 L 350.000 155.365 353.698 155.475 C 356.084 155.547,357.793 155.699,358.514 155.906 M33.750 160.736 L 36.752 163.764 33.639 166.882 C 31.927 168.597,30.501 170.000,30.471 170.000 C 30.441 170.000,30.417 167.234,30.417 163.854 C 30.417 160.474,30.491 157.708,30.582 157.708 C 30.673 157.708,32.099 159.071,33.750 160.736 M50.208 163.854 C 50.208 167.234,50.145 170.000,50.068 170.000 C 49.837 170.000,43.958 164.098,43.958 163.866 C 43.958 163.621,49.807 157.708,50.049 157.708 C 50.137 157.708,50.208 160.474,50.208 163.854 M70.094 163.419 L 72.581 167.083 70.094 170.748 C 68.726 172.764,67.536 174.457,67.449 174.510 C 67.363 174.564,67.292 171.222,67.292 167.083 C 67.292 162.945,67.363 159.603,67.449 159.656 C 67.536 159.710,68.726 161.403,70.094 163.419 M366.395 163.945 C 368.116 169.888,364.685 176.332,358.771 178.269 C 357.694 178.622,350.208 178.929,350.208 178.620 C 350.208 178.325,365.709 162.910,365.932 162.984 C 366.045 163.022,366.253 163.454,366.395 163.945 M195.050 173.696 C 197.658 176.302,199.792 178.505,199.792 178.592 C 199.792 178.679,197.589 178.750,194.896 178.750 L 190.000 178.750 190.000 173.854 C 190.000 171.161,190.070 168.958,190.155 168.958 C 190.240 168.958,192.443 171.090,195.050 173.696 " stroke="none" fill="#9b0404" fill-rule="evenodd"></path></g></svg>